<svg width="45" height="46" viewBox="0 0 45 46" fill="none" xmlns="http://www.w3.org/2000/svg">
<path d="M22.5 42.2188C26.3833 42.2188 29.5312 33.6142 29.5312 23C29.5312 12.3858 26.3833 3.78125 22.5 3.78125C18.6167 3.78125 15.4688 12.3858 15.4688 23C15.4688 33.6142 18.6167 42.2188 22.5 42.2188Z" stroke="white" stroke-width="1.4" stroke-linecap="round" stroke-linejoin="round"/>
<path d="M39.1472 32.609C41.0889 29.246 35.2111 22.2175 26.0189 16.9104C16.8267 11.6033 7.801 10.0273 5.85938 13.3903C3.91775 16.7532 9.79549 23.7818 18.9877 29.0889C28.1799 34.396 37.2056 35.972 39.1472 32.609Z" stroke="white" stroke-width="1.4" stroke-linecap="round" stroke-linejoin="round"/>
<path d="M26.0189 29.0896C35.2111 23.7825 41.0889 16.754 39.1472 13.391C37.2056 10.028 28.1799 11.604 18.9877 16.9111C9.79549 22.2182 3.91775 29.2468 5.85938 32.6097C7.801 35.9727 16.8267 34.3967 26.0189 29.0896Z" stroke="white" stroke-width="1.4" stroke-linecap="round" stroke-linejoin="round"/>
</svg>
