<svg width="155" height="35" viewBox="0 0 155 35" fill="none" xmlns="http://www.w3.org/2000/svg">
<path fill-rule="evenodd" clip-rule="evenodd" d="M17.6079 21.4096C22.3018 21.4096 26.1069 17.6045 26.1069 12.9106C26.1069 8.21675 22.3018 4.41161 17.6079 4.41161H9.10888V12.9106C9.10888 17.6045 12.914 21.4096 17.6079 21.4096ZM30.3564 12.9106C30.3564 19.9514 24.6487 25.6591 17.6079 25.6591C10.5671 25.6591 4.85938 19.9514 4.85938 12.9106V0.162109H17.6079C24.6487 0.162109 30.3564 5.86981 30.3564 12.9106Z" fill="white"/>
<path fill-rule="evenodd" clip-rule="evenodd" d="M17.6079 30.5883C22.3018 30.5883 26.1069 26.7832 26.1069 22.0893C26.1069 17.3955 22.3018 13.5903 17.6079 13.5903H9.10888V22.0893C9.10888 26.7832 12.914 30.5883 17.6079 30.5883ZM30.3564 22.0893C30.3564 29.1301 24.6487 34.8378 17.6079 34.8378C10.5671 34.8378 4.85938 29.1301 4.85938 22.0893V9.34082H17.6079C24.6487 9.34082 30.3564 15.0485 30.3564 22.0893Z" fill="white"/>
<path d="M46.3654 25.788H51.4614C52.236 25.788 52.908 25.7227 53.4774 25.592C54.0467 25.452 54.518 25.2513 54.8914 24.99C55.274 24.7193 55.5587 24.3693 55.7454 23.94C55.932 23.5107 56.0254 23.0207 56.0254 22.47C56.0254 21.826 55.8947 21.252 55.6334 20.748C55.372 20.244 54.9754 19.8287 54.4434 19.502C53.9207 19.1847 53.2627 18.9327 52.4694 18.746C51.6854 18.5593 50.766 18.466 49.7114 18.466H46.3654V25.788ZM46.3654 16.52H49.1514C50.1874 16.52 51.0834 16.4593 51.8394 16.338C52.5954 16.2167 53.2207 16.016 53.7154 15.736C54.21 15.4653 54.5834 15.1153 54.8354 14.686C55.0874 14.2567 55.2134 13.7667 55.2134 13.216C55.2134 12.6653 55.106 12.194 54.8914 11.802C54.6767 11.4007 54.3547 11.0647 53.9254 10.794C53.496 10.5233 52.9594 10.332 52.3154 10.22C51.6807 10.0987 50.9247 10.038 50.0474 10.038H46.3654V16.52ZM43.8454 28V7.84H50.4254C50.976 7.84 51.4987 7.86333 51.9934 7.91C52.4974 7.95667 52.978 8.03133 53.4354 8.134C53.8927 8.23667 54.3127 8.36733 54.6954 8.526C55.0874 8.67533 55.4467 8.85267 55.7734 9.058C56.1 9.27267 56.3847 9.51533 56.6274 9.786C56.8794 10.0473 57.0894 10.346 57.2574 10.682C57.4347 11.018 57.5654 11.3727 57.6494 11.746C57.7334 12.11 57.7754 12.5207 57.7754 12.978C57.7754 13.37 57.7334 13.7433 57.6494 14.098C57.5747 14.4433 57.4627 14.7607 57.3134 15.05C57.164 15.3673 56.9587 15.6427 56.6974 15.876C56.4454 16.1093 56.1654 16.3287 55.8574 16.534C55.68 16.646 55.4654 16.7533 55.2134 16.856C54.9614 16.9493 54.6954 17.0287 54.4154 17.094C54.1447 17.1593 53.874 17.2153 53.6034 17.262C53.3327 17.3087 53.0807 17.3367 52.8474 17.346C52.7914 17.3553 52.7494 17.3787 52.7214 17.416C52.6934 17.444 52.6794 17.4813 52.6794 17.528C52.6794 17.5747 52.6934 17.6167 52.7214 17.654C52.7587 17.6913 52.8007 17.71 52.8474 17.71C53.3327 17.738 53.7994 17.794 54.2474 17.878C54.7047 17.962 55.1294 18.0693 55.5214 18.2C55.9134 18.3307 56.2634 18.48 56.5714 18.648C56.8794 18.816 57.136 19.0027 57.3414 19.208C57.752 19.6373 58.06 20.146 58.2654 20.734C58.4707 21.3127 58.5734 21.9473 58.5734 22.638C58.5734 23.2073 58.508 23.744 58.3774 24.248C58.2467 24.752 58.0507 25.1953 57.7894 25.578C57.528 25.9793 57.1967 26.3293 56.7954 26.628C56.394 26.9173 55.918 27.1693 55.3674 27.384C54.826 27.5893 54.2007 27.7433 53.4914 27.846C52.7914 27.9487 52.0074 28 51.1394 28H43.8454ZM61.4513 18.942L70.2993 18.886C70.2806 18.5313 70.2386 18.2047 70.1733 17.906C70.1173 17.598 70.0333 17.3087 69.9213 17.038C69.7533 16.6273 69.5479 16.2773 69.3053 15.988C69.0719 15.6893 68.7919 15.4373 68.4653 15.232C68.1386 15.0173 67.7933 14.8587 67.4293 14.756C67.0653 14.644 66.6686 14.588 66.2393 14.588C66.0059 14.588 65.7586 14.6067 65.4973 14.644C65.2453 14.672 64.9979 14.7187 64.7553 14.784C64.5126 14.84 64.2793 14.9147 64.0553 15.008C63.8406 15.092 63.6493 15.1947 63.4813 15.316C63.1359 15.5493 62.8326 15.834 62.5713 16.17C62.3099 16.4967 62.0813 16.884 61.8853 17.332C61.7826 17.5653 61.6939 17.8173 61.6193 18.088C61.5446 18.3587 61.4886 18.6433 61.4513 18.942ZM66.1273 28.42C65.5299 28.42 64.9699 28.3733 64.4473 28.28C63.9339 28.196 63.4486 28.0607 62.9913 27.874C62.5339 27.6873 62.1186 27.468 61.7453 27.216C61.3719 26.9547 61.0313 26.6513 60.7233 26.306C60.4153 25.9607 60.1446 25.5873 59.9113 25.186C59.6873 24.7847 59.5006 24.3507 59.3513 23.884C59.1926 23.408 59.0759 22.8947 59.0013 22.344C58.9266 21.7933 58.8893 21.2287 58.8893 20.65C58.8893 20.0527 58.9266 19.4833 59.0013 18.942C59.0853 18.3913 59.2066 17.8687 59.3653 17.374C59.5239 16.87 59.7106 16.4033 59.9253 15.974C60.1493 15.5447 60.4106 15.148 60.7093 14.784C61.0079 14.4107 61.3346 14.084 61.6893 13.804C62.0533 13.5147 62.4593 13.2673 62.9073 13.062C63.1313 12.9687 63.3786 12.8847 63.6493 12.81C63.9199 12.726 64.1999 12.6607 64.4893 12.614C64.7786 12.558 65.0726 12.5207 65.3713 12.502C65.6699 12.474 65.9593 12.46 66.2393 12.46C66.7433 12.46 67.2193 12.502 67.6673 12.586C68.1153 12.67 68.5399 12.796 68.9413 12.964C69.3426 13.1227 69.7159 13.328 70.0613 13.58C70.4066 13.832 70.7193 14.1307 70.9993 14.476C71.2793 14.8213 71.5266 15.1993 71.7413 15.61C71.9559 16.0207 72.1379 16.4827 72.2873 16.996C72.3619 17.2667 72.4226 17.542 72.4693 17.822C72.5253 18.0927 72.5673 18.3773 72.5953 18.676C72.6326 18.9747 72.6559 19.2873 72.6653 19.614C72.6746 19.9407 72.6746 20.2813 72.6653 20.636L61.3113 20.72C61.3299 21.6067 61.4373 22.4047 61.6333 23.114C61.8386 23.8233 62.1373 24.416 62.5293 24.892C62.9306 25.3773 63.4299 25.7413 64.0273 25.984C64.6339 26.2267 65.3433 26.348 66.1553 26.348C66.4726 26.348 66.7666 26.3293 67.0373 26.292C67.3173 26.2547 67.5786 26.1987 67.8213 26.124C68.2506 25.9933 68.6239 25.7833 68.9413 25.494C69.2586 25.1953 69.5246 24.878 69.7393 24.542C69.9539 24.1967 70.1266 23.8607 70.2573 23.534C70.3879 23.198 70.4813 22.9273 70.5373 22.722L72.7353 22.974C72.7166 23.198 72.6699 23.464 72.5953 23.772C72.5206 24.08 72.4086 24.402 72.2593 24.738C72.1099 25.074 71.9233 25.4147 71.6993 25.76C71.4753 26.1053 71.2093 26.432 70.9013 26.74C70.5933 27.0387 70.2433 27.3093 69.8513 27.552C69.4593 27.7947 69.0159 27.9813 68.5213 28.112C68.1666 28.2053 67.7933 28.28 67.4013 28.336C67.0093 28.392 66.5846 28.42 66.1273 28.42ZM79.6642 28.406C78.8055 28.406 77.9842 28.3173 77.2002 28.14C76.4255 27.9627 75.7348 27.678 75.1282 27.286C74.5308 26.8847 74.0502 26.3667 73.6862 25.732C73.3315 25.088 73.1495 24.2993 73.1402 23.366L75.2682 22.974C75.2308 23.6367 75.3475 24.1873 75.6182 24.626C75.8888 25.0553 76.2435 25.396 76.6822 25.648C77.1208 25.9 77.6155 26.0773 78.1662 26.18C78.7262 26.2733 79.2722 26.32 79.8042 26.32C80.2428 26.32 80.6815 26.2873 81.1202 26.222C81.5588 26.1567 81.9555 26.0307 82.3102 25.844C82.6742 25.6573 82.9682 25.396 83.1922 25.06C83.4255 24.724 83.5422 24.29 83.5422 23.758C83.5422 23.4407 83.4675 23.1607 83.3182 22.918C83.1782 22.6753 82.9915 22.47 82.7582 22.302C82.5342 22.1247 82.2728 21.9753 81.9742 21.854C81.6755 21.7327 81.3675 21.63 81.0502 21.546C80.7422 21.4527 80.4342 21.378 80.1262 21.322C79.8275 21.266 79.5568 21.21 79.3142 21.154C78.9035 21.07 78.4695 20.9767 78.0122 20.874C77.5548 20.762 77.1022 20.6267 76.6542 20.468C76.2155 20.3093 75.7908 20.118 75.3802 19.894C74.9788 19.67 74.6288 19.404 74.3302 19.096C74.0315 18.788 73.7982 18.4333 73.6302 18.032C73.4622 17.6307 73.3922 17.1687 73.4202 16.646C73.4388 16.1233 73.5368 15.6567 73.7142 15.246C73.9008 14.8353 74.1435 14.476 74.4422 14.168C74.7408 13.8507 75.0815 13.5847 75.4642 13.37C75.8468 13.1553 76.2528 12.9827 76.6822 12.852C77.1115 12.712 77.5548 12.614 78.0122 12.558C78.4788 12.4927 78.9315 12.46 79.3702 12.46C80.1635 12.46 80.9195 12.5533 81.6382 12.74C82.3568 12.9267 82.9868 13.216 83.5282 13.608C84.0695 14 84.5082 14.4993 84.8442 15.106C85.1802 15.7127 85.3668 16.436 85.4042 17.276L83.2202 17.822C83.2108 17.2153 83.0988 16.702 82.8842 16.282C82.6788 15.862 82.3988 15.5213 82.0442 15.26C81.6895 14.9987 81.2742 14.812 80.7982 14.7C80.3222 14.5787 79.8135 14.518 79.2722 14.518C78.9455 14.518 78.5862 14.5507 78.1942 14.616C77.8115 14.672 77.4475 14.7747 77.1022 14.924C76.7662 15.0733 76.4722 15.2787 76.2202 15.54C75.9775 15.792 75.8375 16.1233 75.8002 16.534C75.7722 16.8327 75.8235 17.094 75.9542 17.318C76.0848 17.542 76.2668 17.7427 76.5002 17.92C76.7428 18.0973 77.0135 18.2513 77.3122 18.382C77.6202 18.5033 77.9328 18.6107 78.2502 18.704C78.5768 18.7973 78.8848 18.8767 79.1742 18.942C79.4728 18.998 79.7342 19.054 79.9582 19.11C80.4062 19.194 80.8635 19.2873 81.3302 19.39C81.7968 19.4927 82.2495 19.6233 82.6882 19.782C83.1362 19.9313 83.5515 20.1133 83.9342 20.328C84.3168 20.5333 84.6528 20.79 84.9422 21.098C85.2315 21.3967 85.4602 21.756 85.6282 22.176C85.8055 22.5867 85.8942 23.0673 85.8942 23.618C85.8942 24.2527 85.8102 24.8127 85.6422 25.298C85.4835 25.774 85.2595 26.1893 84.9702 26.544C84.6902 26.8987 84.3542 27.1973 83.9622 27.44C83.5702 27.6733 83.1455 27.86 82.6882 28C82.2308 28.1493 81.7455 28.252 81.2322 28.308C80.7188 28.3733 80.1962 28.406 79.6642 28.406ZM89.0271 8.484H90.6651V12.026H95.2991V14.252H90.6651V23.772C90.6838 24.1733 90.7444 24.528 90.8471 24.836C90.9498 25.1347 91.0944 25.3867 91.2811 25.592C91.4678 25.7973 91.6824 25.9513 91.9251 26.054C92.1678 26.1567 92.4338 26.2127 92.7231 26.222C93.1338 26.2407 93.5258 26.1473 93.8991 25.942C94.2724 25.7367 94.5571 25.4147 94.7531 24.976L95.8031 26.614C95.6444 26.922 95.4484 27.202 95.2151 27.454C94.9818 27.6967 94.7158 27.9067 94.4171 28.084C94.1278 28.2613 93.8058 28.3967 93.4511 28.49C93.1058 28.5927 92.7418 28.644 92.3591 28.644C91.5751 28.644 90.9124 28.504 90.3711 28.224C89.8391 27.9533 89.4051 27.5847 89.0691 27.118C88.7424 26.6513 88.5044 26.1053 88.3551 25.48C88.2151 24.8453 88.1358 24.1733 88.1171 23.464V14.224H85.4011L85.4151 12.04H87.2631C87.4778 12.0307 87.6691 12.0073 87.8371 11.97C88.0144 11.9327 88.1638 11.872 88.2851 11.788C88.4158 11.6947 88.5184 11.578 88.5931 11.438C88.6678 11.2887 88.7238 11.102 88.7611 10.878L89.0271 8.484ZM99.0294 25.788H104.125C104.9 25.788 105.572 25.7227 106.141 25.592C106.711 25.452 107.182 25.2513 107.555 24.99C107.938 24.7193 108.223 24.3693 108.409 23.94C108.596 23.5107 108.689 23.0207 108.689 22.47C108.689 21.826 108.559 21.252 108.297 20.748C108.036 20.244 107.639 19.8287 107.107 19.502C106.585 19.1847 105.927 18.9327 105.133 18.746C104.349 18.5593 103.43 18.466 102.375 18.466H99.0294V25.788ZM99.0294 16.52H101.815C102.851 16.52 103.747 16.4593 104.503 16.338C105.259 16.2167 105.885 16.016 106.379 15.736C106.874 15.4653 107.247 15.1153 107.499 14.686C107.751 14.2567 107.877 13.7667 107.877 13.216C107.877 12.6653 107.77 12.194 107.555 11.802C107.341 11.4007 107.019 11.0647 106.589 10.794C106.16 10.5233 105.623 10.332 104.979 10.22C104.345 10.0987 103.589 10.038 102.711 10.038H99.0294V16.52ZM96.5094 28V7.84H103.089C103.64 7.84 104.163 7.86333 104.657 7.91C105.161 7.95667 105.642 8.03133 106.099 8.134C106.557 8.23667 106.977 8.36733 107.359 8.526C107.751 8.67533 108.111 8.85267 108.437 9.058C108.764 9.27267 109.049 9.51533 109.291 9.786C109.543 10.0473 109.753 10.346 109.921 10.682C110.099 11.018 110.229 11.3727 110.313 11.746C110.397 12.11 110.439 12.5207 110.439 12.978C110.439 13.37 110.397 13.7433 110.313 14.098C110.239 14.4433 110.127 14.7607 109.977 15.05C109.828 15.3673 109.623 15.6427 109.361 15.876C109.109 16.1093 108.829 16.3287 108.521 16.534C108.344 16.646 108.129 16.7533 107.877 16.856C107.625 16.9493 107.359 17.0287 107.079 17.094C106.809 17.1593 106.538 17.2153 106.267 17.262C105.997 17.3087 105.745 17.3367 105.511 17.346C105.455 17.3553 105.413 17.3787 105.385 17.416C105.357 17.444 105.343 17.4813 105.343 17.528C105.343 17.5747 105.357 17.6167 105.385 17.654C105.423 17.6913 105.465 17.71 105.511 17.71C105.997 17.738 106.463 17.794 106.911 17.878C107.369 17.962 107.793 18.0693 108.185 18.2C108.577 18.3307 108.927 18.48 109.235 18.648C109.543 18.816 109.8 19.0027 110.005 19.208C110.416 19.6373 110.724 20.146 110.929 20.734C111.135 21.3127 111.237 21.9473 111.237 22.638C111.237 23.2073 111.172 23.744 111.041 24.248C110.911 24.752 110.715 25.1953 110.453 25.578C110.192 25.9793 109.861 26.3293 109.459 26.628C109.058 26.9173 108.582 27.1693 108.031 27.384C107.49 27.5893 106.865 27.7433 106.155 27.846C105.455 27.9487 104.671 28 103.803 28H96.5094ZM116.467 26.306C116.682 26.306 116.897 26.2873 117.111 26.25C117.335 26.2127 117.559 26.1613 117.783 26.096C117.895 26.0587 118.012 26.0213 118.133 25.984C118.264 25.9373 118.395 25.8907 118.525 25.844C118.656 25.788 118.782 25.732 118.903 25.676C119.025 25.6107 119.141 25.5407 119.253 25.466C119.655 25.1953 120.014 24.878 120.331 24.514C120.658 24.15 120.933 23.758 121.157 23.338C121.391 22.918 121.568 22.4747 121.689 22.008C121.811 21.532 121.871 21.042 121.871 20.538C121.871 20.5193 121.871 20.496 121.871 20.468C121.871 20.44 121.871 20.412 121.871 20.384C121.871 20.3467 121.871 20.314 121.871 20.286C121.871 20.2487 121.871 20.2253 121.871 20.216C121.853 20.216 121.759 20.2347 121.591 20.272C121.433 20.3 121.241 20.3373 121.017 20.384C120.803 20.4307 120.579 20.4773 120.345 20.524C120.121 20.5613 119.93 20.5987 119.771 20.636C119.426 20.7107 119.076 20.7807 118.721 20.846C118.376 20.902 118.031 20.9627 117.685 21.028C117.247 21.1213 116.855 21.2147 116.509 21.308C116.164 21.392 115.856 21.4853 115.585 21.588C115.305 21.6907 115.053 21.8027 114.829 21.924C114.615 22.036 114.428 22.1947 114.269 22.4C114.185 22.4933 114.111 22.5913 114.045 22.694C113.989 22.7873 113.943 22.89 113.905 23.002C113.868 23.114 113.835 23.2353 113.807 23.366C113.789 23.4967 113.779 23.646 113.779 23.814C113.779 24.234 113.845 24.6027 113.975 24.92C114.115 25.228 114.307 25.4847 114.549 25.69C114.792 25.8953 115.072 26.0493 115.389 26.152C115.716 26.2547 116.075 26.306 116.467 26.306ZM115.795 28.392C115.123 28.392 114.507 28.294 113.947 28.098C113.397 27.902 112.921 27.6173 112.519 27.244C112.118 26.8613 111.81 26.3947 111.595 25.844C111.381 25.2933 111.278 24.6727 111.287 23.982C111.278 23.6647 111.306 23.3567 111.371 23.058C111.446 22.75 111.553 22.4653 111.693 22.204C111.833 21.9333 112.001 21.6907 112.197 21.476C112.403 21.252 112.636 21.0653 112.897 20.916C113.196 20.7293 113.523 20.5473 113.877 20.37C114.232 20.1927 114.633 20.0387 115.081 19.908C115.296 19.8333 115.59 19.7587 115.963 19.684C116.346 19.6 116.761 19.516 117.209 19.432C117.667 19.348 118.138 19.2687 118.623 19.194C119.109 19.11 119.566 19.0307 119.995 18.956C120.434 18.8813 120.821 18.816 121.157 18.76C121.493 18.704 121.741 18.6573 121.899 18.62C121.909 18.4613 121.909 18.2933 121.899 18.116C121.89 17.9387 121.876 17.766 121.857 17.598C121.848 17.43 121.829 17.2667 121.801 17.108C121.773 16.9493 121.736 16.8093 121.689 16.688C121.615 16.3613 121.489 16.0673 121.311 15.806C121.134 15.5353 120.91 15.3113 120.639 15.134C120.369 14.9567 120.051 14.8213 119.687 14.728C119.323 14.6347 118.922 14.5927 118.483 14.602C118.185 14.602 117.891 14.616 117.601 14.644C117.321 14.672 117.046 14.728 116.775 14.812C116.514 14.8867 116.253 14.9893 115.991 15.12C115.739 15.2507 115.506 15.4187 115.291 15.624C115.114 15.7547 114.96 15.918 114.829 16.114C114.708 16.31 114.601 16.5153 114.507 16.73C114.423 16.9353 114.358 17.1313 114.311 17.318C114.274 17.5047 114.251 17.6493 114.241 17.752L111.805 17.612C111.824 17.1267 111.889 16.6833 112.001 16.282C112.123 15.8713 112.281 15.498 112.477 15.162C112.683 14.826 112.921 14.5227 113.191 14.252C113.462 13.972 113.761 13.734 114.087 13.538C114.722 13.1273 115.427 12.8473 116.201 12.698C116.976 12.5393 117.755 12.46 118.539 12.46C119.183 12.4507 119.776 12.5067 120.317 12.628C120.868 12.74 121.363 12.9127 121.801 13.146C122.24 13.3793 122.623 13.678 122.949 14.042C123.276 14.406 123.547 14.84 123.761 15.344C123.939 15.7827 124.069 16.268 124.153 16.8C124.247 17.3227 124.289 17.8967 124.279 18.522C124.289 18.7087 124.293 18.914 124.293 19.138C124.293 19.362 124.289 19.5953 124.279 19.838C124.279 20.0807 124.279 20.314 124.279 20.538C124.279 20.762 124.279 20.9627 124.279 21.14C124.279 21.3827 124.279 21.6207 124.279 21.854C124.289 22.0873 124.293 22.3113 124.293 22.526C124.293 22.7407 124.298 22.9413 124.307 23.128C124.317 23.3147 124.321 23.4873 124.321 23.646C124.34 23.9353 124.359 24.2807 124.377 24.682C124.405 25.074 124.429 25.4753 124.447 25.886C124.475 26.2967 124.503 26.6933 124.531 27.076C124.559 27.4493 124.583 27.762 124.601 28.014H122.235C122.226 27.8273 122.212 27.58 122.193 27.272C122.184 26.9547 122.17 26.6187 122.151 26.264C122.133 25.9093 122.114 25.564 122.095 25.228C122.077 24.8827 122.063 24.5887 122.053 24.346C122.044 24.29 122.021 24.2433 121.983 24.206C121.955 24.1687 121.918 24.15 121.871 24.15C121.825 24.1407 121.778 24.1453 121.731 24.164C121.685 24.1827 121.652 24.2153 121.633 24.262C121.363 24.8967 121.045 25.4707 120.681 25.984C120.317 26.4973 119.893 26.936 119.407 27.3C118.922 27.6547 118.381 27.9253 117.783 28.112C117.186 28.308 116.523 28.4013 115.795 28.392ZM125.95 28.014V12.88H128.26L127.826 17.416C127.826 17.4907 127.849 17.556 127.896 17.612C127.943 17.668 127.999 17.696 128.064 17.696C128.12 17.696 128.167 17.6773 128.204 17.64C128.251 17.6027 128.283 17.5607 128.302 17.514C128.386 17.2153 128.531 16.856 128.736 16.436C128.951 16.0067 129.203 15.5773 129.492 15.148C129.791 14.7093 130.117 14.3033 130.472 13.93C130.836 13.5473 131.209 13.258 131.592 13.062C131.769 12.978 131.961 12.9033 132.166 12.838C132.371 12.7633 132.586 12.7027 132.81 12.656C133.034 12.6093 133.263 12.572 133.496 12.544C133.729 12.516 133.963 12.502 134.196 12.502C135.008 12.502 135.717 12.6513 136.324 12.95C136.94 13.2487 137.463 13.7013 137.892 14.308C138.321 14.9053 138.639 15.6473 138.844 16.534C139.059 17.4113 139.166 18.438 139.166 19.614V28.014H136.758V19.81C136.758 18.9513 136.688 18.2093 136.548 17.584C136.417 16.9493 136.217 16.422 135.946 16.002C135.675 15.582 135.344 15.2647 134.952 15.05C134.56 14.8353 134.103 14.7327 133.58 14.742C133.029 14.7607 132.521 14.8913 132.054 15.134C131.597 15.3673 131.181 15.6707 130.808 16.044C130.444 16.408 130.117 16.8187 129.828 17.276C129.539 17.7333 129.291 18.2 129.086 18.676C128.881 19.1427 128.717 19.5953 128.596 20.034C128.475 20.4633 128.391 20.8367 128.344 21.154V28.014H125.95ZM153.285 28H150.555C150.294 27.1227 149.93 26.2967 149.463 25.522C148.996 24.7473 148.436 24.0613 147.783 23.464C147.475 23.1653 147.144 22.8947 146.789 22.652C146.444 22.4 146.08 22.176 145.697 21.98C145.324 21.784 144.936 21.6207 144.535 21.49C144.134 21.35 143.723 21.252 143.303 21.196V28H140.797V7.84H143.303V18.886C143.938 18.7273 144.568 18.4847 145.193 18.158C145.828 17.822 146.416 17.402 146.957 16.898C147.508 16.394 148.002 15.806 148.441 15.134C148.88 14.462 149.23 13.7107 149.491 12.88H152.277C152.044 13.6827 151.703 14.4713 151.255 15.246C150.807 16.0207 150.27 16.7253 149.645 17.36C149.02 17.9853 148.32 18.5127 147.545 18.942C146.78 19.362 145.968 19.628 145.109 19.74C145.062 19.7493 145.025 19.7727 144.997 19.81C144.969 19.838 144.955 19.8753 144.955 19.922C144.955 19.9687 144.964 20.0107 144.983 20.048C145.011 20.076 145.048 20.0993 145.095 20.118C145.235 20.1367 145.431 20.1647 145.683 20.202C145.935 20.2393 146.22 20.3 146.537 20.384C146.854 20.468 147.19 20.5847 147.545 20.734C147.9 20.874 148.25 21.0607 148.595 21.294C149.248 21.714 149.846 22.218 150.387 22.806C150.928 23.3847 151.404 24.01 151.815 24.682C152.132 25.2047 152.412 25.7413 152.655 26.292C152.898 26.8333 153.108 27.4027 153.285 28Z" fill="white"/>
</svg>
