<svg width="147" height="35" viewBox="0 0 147 35" fill="none" xmlns="http://www.w3.org/2000/svg">
<rect x="20.6016" y="8.5752" width="5.95" height="5.95" fill="white"/>
<rect x="14.6484" y="14.5244" width="5.95" height="5.95" fill="white"/>
<rect x="14.6484" y="14.5244" width="5.95" height="5.95" fill="white"/>
<rect x="20.6016" y="20.4756" width="5.95" height="5.95" fill="white"/>
<rect x="14.6484" y="26.4248" width="5.95" height="5.95" fill="white"/>
<rect x="8.70312" y="26.4248" width="5.95" height="5.95" fill="white"/>
<rect x="14.6484" y="2.625" width="5.95" height="5.95" fill="white"/>
<path d="M8.70312 2.625H14.6531V8.575H8.70312V2.625Z" fill="white"/>
<path d="M45.1568 25.2837H45.0168C44.6995 26.1423 44.1768 26.8143 43.4488 27.2997C42.7395 27.785 41.8995 28.0277 40.9288 28.0277C39.0808 28.0277 37.6528 27.365 36.6448 26.0397C35.6368 24.6957 35.1328 22.8197 35.1328 20.4117C35.1328 18.0037 35.6368 16.137 36.6448 14.8117C37.6528 13.4677 39.0808 12.7957 40.9288 12.7957C41.8995 12.7957 42.7395 13.0383 43.4488 13.5237C44.1768 13.9903 44.6995 14.6623 45.0168 15.5397H45.1568V6.97168H48.2088V27.6917H45.1568V25.2837ZM41.8528 25.3957C42.7861 25.3957 43.5701 25.1717 44.2048 24.7237C44.8395 24.257 45.1568 23.6503 45.1568 22.9037V17.9197C45.1568 17.173 44.8395 16.5757 44.2048 16.1277C43.5701 15.661 42.7861 15.4277 41.8528 15.4277C40.7888 15.4277 39.9395 15.773 39.3048 16.4637C38.6701 17.1357 38.3528 18.0317 38.3528 19.1517V21.6717C38.3528 22.7917 38.6701 23.697 39.3048 24.3877C39.9395 25.0597 40.7888 25.3957 41.8528 25.3957Z" fill="white"/>
<path d="M61.4891 27.6917C60.6865 27.6917 60.0705 27.4677 59.6411 27.0197C59.2118 26.553 58.9505 25.965 58.8571 25.2557H58.7171C58.4371 26.1703 57.9238 26.861 57.1771 27.3277C56.4305 27.7943 55.5251 28.0277 54.4611 28.0277C52.9491 28.0277 51.7825 27.6357 50.9611 26.8517C50.1585 26.0677 49.7571 25.013 49.7571 23.6877C49.7571 22.2317 50.2798 21.1397 51.3251 20.4117C52.3891 19.6837 53.9385 19.3197 55.9731 19.3197H58.6051V18.0877C58.6051 17.1917 58.3625 16.501 57.8771 16.0157C57.3918 15.5303 56.6358 15.2877 55.6091 15.2877C54.7505 15.2877 54.0505 15.4743 53.5091 15.8477C52.9678 16.221 52.5105 16.697 52.1371 17.2757L50.3171 15.6237C50.8025 14.8023 51.4838 14.1303 52.3611 13.6077C53.2385 13.0663 54.3865 12.7957 55.8051 12.7957C57.6905 12.7957 59.1371 13.2343 60.1451 14.1117C61.1531 14.989 61.6571 16.249 61.6571 17.8917V25.1997H63.1971V27.6917H61.4891ZM55.3291 25.7037C56.2811 25.7037 57.0651 25.4983 57.6811 25.0877C58.2971 24.6583 58.6051 24.089 58.6051 23.3797V21.2797H56.0291C53.9198 21.2797 52.8651 21.933 52.8651 23.2397V23.7437C52.8651 24.397 53.0798 24.8917 53.5091 25.2277C53.9571 25.545 54.5638 25.7037 55.3291 25.7037Z" fill="white"/>
<path d="M68.3883 27.6917C67.3243 27.6917 66.5216 27.421 65.9803 26.8797C65.4389 26.3197 65.1683 25.5357 65.1683 24.5277V15.6237H62.9003V13.1317H64.1323C64.6363 13.1317 64.9816 13.0197 65.1683 12.7957C65.3736 12.5717 65.4763 12.2077 65.4763 11.7037V9.15568H68.2203V13.1317H71.2723V15.6237H68.2203V25.1997H71.0483V27.6917H68.3883Z" fill="white"/>
<path d="M83.5008 27.6917C82.6982 27.6917 82.0822 27.4677 81.6528 27.0197C81.2235 26.553 80.9622 25.965 80.8688 25.2557H80.7288C80.4488 26.1703 79.9355 26.861 79.1888 27.3277C78.4422 27.7943 77.5368 28.0277 76.4728 28.0277C74.9608 28.0277 73.7942 27.6357 72.9728 26.8517C72.1702 26.0677 71.7688 25.013 71.7688 23.6877C71.7688 22.2317 72.2915 21.1397 73.3368 20.4117C74.4008 19.6837 75.9502 19.3197 77.9848 19.3197H80.6168V18.0877C80.6168 17.1917 80.3742 16.501 79.8888 16.0157C79.4035 15.5303 78.6475 15.2877 77.6208 15.2877C76.7622 15.2877 76.0622 15.4743 75.5208 15.8477C74.9795 16.221 74.5222 16.697 74.1488 17.2757L72.3288 15.6237C72.8142 14.8023 73.4955 14.1303 74.3728 13.6077C75.2502 13.0663 76.3982 12.7957 77.8168 12.7957C79.7022 12.7957 81.1488 13.2343 82.1568 14.1117C83.1648 14.989 83.6688 16.249 83.6688 17.8917V25.1997H85.2088V27.6917H83.5008ZM77.3408 25.7037C78.2928 25.7037 79.0768 25.4983 79.6928 25.0877C80.3088 24.6583 80.6168 24.089 80.6168 23.3797V21.2797H78.0408C75.9315 21.2797 74.8768 21.933 74.8768 23.2397V23.7437C74.8768 24.397 75.0915 24.8917 75.5208 25.2277C75.9688 25.545 76.5755 25.7037 77.3408 25.7037Z" fill="white"/>
<path d="M86.674 8.14768H95.326C96.95 8.14768 98.2194 8.60501 99.134 9.51968C100.067 10.4343 100.534 11.657 100.534 13.1877C100.534 13.9157 100.431 14.541 100.226 15.0637C100.021 15.5677 99.7594 15.9877 99.442 16.3237C99.1247 16.641 98.7607 16.8837 98.35 17.0517C97.9394 17.201 97.538 17.2943 97.146 17.3317V17.4997C97.538 17.5183 97.9674 17.6117 98.434 17.7797C98.9194 17.9477 99.3674 18.2183 99.778 18.5917C100.189 18.9463 100.534 19.413 100.814 19.9917C101.094 20.5517 101.234 21.2423 101.234 22.0637C101.234 22.8477 101.103 23.585 100.842 24.2757C100.599 24.9663 100.254 25.5637 99.806 26.0677C99.358 26.5717 98.826 26.973 98.21 27.2717C97.594 27.5517 96.922 27.6917 96.194 27.6917H86.674V8.14768ZM89.838 24.9757H95.27C96.0914 24.9757 96.7354 24.761 97.202 24.3317C97.6687 23.9023 97.902 23.2863 97.902 22.4837V21.5317C97.902 20.729 97.6687 20.113 97.202 19.6837C96.7354 19.2543 96.0914 19.0397 95.27 19.0397H89.838V24.9757ZM89.838 16.4077H94.738C95.522 16.4077 96.1287 16.2117 96.558 15.8197C96.9874 15.409 97.202 14.8303 97.202 14.0837V13.1877C97.202 12.441 96.9874 11.8717 96.558 11.4797C96.1287 11.069 95.522 10.8637 94.738 10.8637H89.838V16.4077Z" fill="white"/>
<path d="M103.157 13.1317H106.209V27.6917H103.157V13.1317Z" fill="white"/>
<path d="M112.849 27.6917C111.785 27.6917 110.983 27.421 110.441 26.8797C109.9 26.3197 109.629 25.5357 109.629 24.5277V15.6237H107.361V13.1317H108.593C109.097 13.1317 109.443 13.0197 109.629 12.7957C109.835 12.5717 109.937 12.2077 109.937 11.7037V9.15568H112.681V13.1317H115.733V15.6237H112.681V25.1997H115.509V27.6917H112.849Z" fill="white"/>
<path d="M122.896 28.0277C121.851 28.0277 120.918 27.8503 120.096 27.4957C119.275 27.141 118.575 26.637 117.996 25.9837C117.418 25.3117 116.97 24.509 116.652 23.5757C116.354 22.6237 116.204 21.569 116.204 20.4117C116.204 19.2543 116.354 18.209 116.652 17.2757C116.97 16.3237 117.418 15.521 117.996 14.8677C118.575 14.1957 119.275 13.6823 120.096 13.3277C120.918 12.973 121.851 12.7957 122.896 12.7957C123.96 12.7957 124.894 12.9823 125.696 13.3557C126.518 13.729 127.199 14.2517 127.74 14.9237C128.282 15.577 128.683 16.3423 128.944 17.2197C129.224 18.097 129.364 19.0397 129.364 20.0477V21.1957H119.368V21.6717C119.368 22.7917 119.695 23.7157 120.348 24.4437C121.02 25.153 121.972 25.5077 123.204 25.5077C124.1 25.5077 124.856 25.3117 125.472 24.9197C126.088 24.5277 126.611 23.9957 127.04 23.3237L128.832 25.0877C128.291 25.9837 127.507 26.7023 126.48 27.2437C125.454 27.7663 124.259 28.0277 122.896 28.0277ZM122.896 15.1757C122.374 15.1757 121.888 15.269 121.44 15.4557C121.011 15.6423 120.638 15.9037 120.32 16.2397C120.022 16.5757 119.788 16.977 119.62 17.4437C119.452 17.9103 119.368 18.4237 119.368 18.9837V19.1797H126.144V18.8997C126.144 17.7797 125.855 16.8837 125.276 16.2117C124.698 15.521 123.904 15.1757 122.896 15.1757Z" fill="white"/>
<path d="M135.613 28.0277C134.232 28.0277 133.074 27.785 132.141 27.2997C131.208 26.8143 130.396 26.1423 129.705 25.2837L131.665 23.4917C132.206 24.145 132.804 24.6583 133.457 25.0317C134.129 25.3863 134.904 25.5637 135.781 25.5637C136.677 25.5637 137.34 25.3957 137.769 25.0597C138.217 24.705 138.441 24.2197 138.441 23.6037C138.441 23.137 138.282 22.745 137.965 22.4277C137.666 22.0917 137.134 21.877 136.369 21.7837L135.025 21.6157C133.532 21.429 132.356 20.9997 131.497 20.3277C130.657 19.637 130.237 18.6197 130.237 17.2757C130.237 16.5663 130.368 15.941 130.629 15.3997C130.89 14.8397 131.254 14.373 131.721 13.9997C132.206 13.6077 132.776 13.309 133.429 13.1037C134.101 12.8983 134.838 12.7957 135.641 12.7957C136.948 12.7957 138.012 13.001 138.833 13.4117C139.673 13.8223 140.42 14.3917 141.073 15.1197L139.197 16.9117C138.824 16.4637 138.329 16.081 137.713 15.7637C137.116 15.4277 136.425 15.2597 135.641 15.2597C134.801 15.2597 134.176 15.4277 133.765 15.7637C133.373 16.0997 133.177 16.5383 133.177 17.0797C133.177 17.6397 133.354 18.0597 133.709 18.3397C134.064 18.6197 134.633 18.825 135.417 18.9557L136.761 19.1237C138.366 19.3663 139.533 19.8423 140.261 20.5517C141.008 21.2423 141.381 22.1757 141.381 23.3517C141.381 24.061 141.241 24.705 140.961 25.2837C140.7 25.8437 140.317 26.329 139.813 26.7397C139.309 27.1503 138.702 27.4677 137.993 27.6917C137.284 27.9157 136.49 28.0277 135.613 28.0277Z" fill="white"/>
<path d="M144.791 28.0277C144.1 28.0277 143.587 27.8503 143.251 27.4957C142.915 27.1223 142.747 26.665 142.747 26.1237V25.7037C142.747 25.1623 142.915 24.7143 143.251 24.3597C143.587 23.9863 144.1 23.7997 144.791 23.7997C145.482 23.7997 145.995 23.9863 146.331 24.3597C146.667 24.7143 146.835 25.1623 146.835 25.7037V26.1237C146.835 26.665 146.667 27.1223 146.331 27.4957C145.995 27.8503 145.482 28.0277 144.791 28.0277Z" fill="white"/>
</svg>
