<svg width="20" height="21" viewBox="0 0 20 21" fill="none" xmlns="http://www.w3.org/2000/svg">
<g clip-path="url(#clip0_568_2094)">
<path d="M19.3884 8.34956C18.0959 6.24456 15.1559 2.71289 9.99589 2.71289C4.83589 2.71289 1.89589 6.24456 0.603392 8.34956C0.203832 8.99581 -0.0078125 9.74059 -0.0078125 10.5004C-0.0078125 11.2602 0.203832 12.005 0.603392 12.6512C1.89589 14.7562 4.83589 18.2879 9.99589 18.2879C15.1559 18.2879 18.0959 14.7562 19.3884 12.6512C19.788 12.005 19.9996 11.2602 19.9996 10.5004C19.9996 9.74059 19.788 8.99581 19.3884 8.34956ZM17.9676 11.7787C16.8576 13.5837 14.3451 16.6212 9.99589 16.6212C5.64673 16.6212 3.13423 13.5837 2.02423 11.7787C1.78684 11.3946 1.6611 10.952 1.6611 10.5004C1.6611 10.0488 1.78684 9.60619 2.02423 9.22206C3.13423 7.41706 5.64673 4.37956 9.99589 4.37956C14.3451 4.37956 16.8576 7.41372 17.9676 9.22206C18.2049 9.60619 18.3307 10.0488 18.3307 10.5004C18.3307 10.952 18.2049 11.3946 17.9676 11.7787Z" fill="white" fill-opacity="0.42"/>
<path d="M10.0026 6.33398C9.17852 6.33398 8.37293 6.57836 7.68773 7.03619C7.00253 7.49403 6.46847 8.14478 6.15311 8.90614C5.83774 9.6675 5.75523 10.5053 5.916 11.3135C6.07677 12.1218 6.47361 12.8642 7.05633 13.4469C7.63905 14.0296 8.38148 14.4265 9.18973 14.5873C9.99798 14.748 10.8358 14.6655 11.5971 14.3502C12.3585 14.0348 13.0092 13.5007 13.4671 12.8155C13.9249 12.1303 14.1693 11.3247 14.1693 10.5007C14.1679 9.39599 13.7285 8.33695 12.9474 7.55583C12.1663 6.77472 11.1073 6.33531 10.0026 6.33398ZM10.0026 13.0007C9.50815 13.0007 9.0248 12.854 8.61368 12.5793C8.20256 12.3046 7.88213 11.9142 7.69291 11.4574C7.50369 11.0005 7.45418 10.4979 7.55064 10.0129C7.64711 9.52797 7.88521 9.08252 8.23484 8.73288C8.58447 8.38325 9.02993 8.14515 9.51488 8.04869C9.99983 7.95222 10.5025 8.00173 10.9593 8.19095C11.4161 8.38017 11.8066 8.7006 12.0813 9.11173C12.356 9.52285 12.5026 10.0062 12.5026 10.5007C12.5026 11.1637 12.2392 11.7996 11.7704 12.2684C11.3015 12.7373 10.6656 13.0007 10.0026 13.0007Z" fill="white" fill-opacity="0.42"/>
</g>
<defs>
<clipPath id="clip0_568_2094">
<rect width="20" height="20" fill="white" transform="translate(0 0.5)"/>
</clipPath>
</defs>
</svg>
