<svg width="168" height="35" viewBox="0 0 168 35" fill="none" xmlns="http://www.w3.org/2000/svg">
<path fill-rule="evenodd" clip-rule="evenodd" d="M28.1927 11.6667V23.3333C28.1927 28.8102 23.7529 33.25 18.276 33.25C17.3882 33.25 16.5276 33.1333 15.7087 32.9145L15.0184 34.5391C16.0523 34.8392 17.1454 35 18.276 35C24.7194 35 29.9427 29.7767 29.9427 23.3333V11.6667C29.9427 5.22335 24.7194 0 18.276 0C11.8327 0 6.60938 5.22335 6.60938 11.6667V23.3333C6.60938 27.6348 8.93724 31.3925 12.4019 33.4155L12.8858 31.6585C12.8757 31.652 12.8656 31.6454 12.8555 31.6388L17.8976 13.7021H21.0877L21.2557 13.1421H18.055L18.2597 12.4141C18.5957 11.1448 18.913 9.99681 19.2117 8.97014C19.5103 7.92481 19.8837 7.19681 20.3317 6.78614C20.537 6.59947 20.761 6.4408 21.0037 6.31014C21.265 6.17947 21.5637 6.11414 21.8997 6.11414C22.2357 6.11414 22.5063 6.17947 22.7117 6.31014C22.9357 6.42214 23.057 6.54347 23.0757 6.67414C22.553 6.84214 22.1237 7.12214 21.7877 7.51414C21.4703 7.88747 21.3117 8.33547 21.3117 8.85814C21.293 9.2128 21.405 9.49281 21.6477 9.69814C21.8903 9.88481 22.2263 9.97814 22.6557 9.97814C23.2717 9.97814 23.7757 9.75414 24.1677 9.30614C24.5597 8.85814 24.7557 8.38214 24.7557 7.87814C24.7557 7.24347 24.4943 6.7208 23.9717 6.31014C23.449 5.8808 22.7117 5.66614 21.7597 5.66614C21.069 5.66614 20.397 5.78747 19.7437 6.03014C19.109 6.2728 18.5583 6.60881 18.0917 7.03814C17.4383 7.63547 16.869 8.43814 16.3837 9.44614C15.9228 10.4232 15.4983 11.6552 15.1102 13.1421H12.6597L12.4917 13.7021H14.954L10.5131 29.5046C9.16495 27.811 8.35938 25.6662 8.35938 23.3333V11.6667C8.35938 6.18984 12.7992 1.75 18.276 1.75C23.7529 1.75 28.1927 6.18984 28.1927 11.6667Z" fill="white"/>
<path d="M40.3234 7.84H53.3294V10.094H42.8574V16.506H51.3414V18.424H42.8574V28H40.3234V7.84ZM57.9595 26.306C58.1742 26.306 58.3888 26.2873 58.6035 26.25C58.8275 26.2127 59.0515 26.1613 59.2755 26.096C59.3875 26.0587 59.5042 26.0213 59.6255 25.984C59.7562 25.9373 59.8868 25.8907 60.0175 25.844C60.1482 25.788 60.2742 25.732 60.3955 25.676C60.5168 25.6107 60.6335 25.5407 60.7455 25.466C61.1468 25.1953 61.5062 24.878 61.8235 24.514C62.1502 24.15 62.4255 23.758 62.6495 23.338C62.8828 22.918 63.0602 22.4747 63.1815 22.008C63.3028 21.532 63.3635 21.042 63.3635 20.538C63.3635 20.5193 63.3635 20.496 63.3635 20.468C63.3635 20.44 63.3635 20.412 63.3635 20.384C63.3635 20.3467 63.3635 20.314 63.3635 20.286C63.3635 20.2487 63.3635 20.2253 63.3635 20.216C63.3448 20.216 63.2515 20.2347 63.0835 20.272C62.9248 20.3 62.7335 20.3373 62.5095 20.384C62.2948 20.4307 62.0708 20.4773 61.8375 20.524C61.6135 20.5613 61.4222 20.5987 61.2635 20.636C60.9182 20.7107 60.5682 20.7807 60.2135 20.846C59.8682 20.902 59.5228 20.9627 59.1775 21.028C58.7388 21.1213 58.3468 21.2147 58.0015 21.308C57.6562 21.392 57.3482 21.4853 57.0775 21.588C56.7975 21.6907 56.5455 21.8027 56.3215 21.924C56.1068 22.036 55.9202 22.1947 55.7615 22.4C55.6775 22.4933 55.6028 22.5913 55.5375 22.694C55.4815 22.7873 55.4348 22.89 55.3975 23.002C55.3602 23.114 55.3275 23.2353 55.2995 23.366C55.2808 23.4967 55.2715 23.646 55.2715 23.814C55.2715 24.234 55.3368 24.6027 55.4675 24.92C55.6075 25.228 55.7988 25.4847 56.0415 25.69C56.2842 25.8953 56.5642 26.0493 56.8815 26.152C57.2082 26.2547 57.5675 26.306 57.9595 26.306ZM57.2875 28.392C56.6155 28.392 55.9995 28.294 55.4395 28.098C54.8888 27.902 54.4128 27.6173 54.0115 27.244C53.6102 26.8613 53.3022 26.3947 53.0875 25.844C52.8728 25.2933 52.7702 24.6727 52.7795 23.982C52.7702 23.6647 52.7982 23.3567 52.8635 23.058C52.9382 22.75 53.0455 22.4653 53.1855 22.204C53.3255 21.9333 53.4935 21.6907 53.6895 21.476C53.8948 21.252 54.1282 21.0653 54.3895 20.916C54.6882 20.7293 55.0148 20.5473 55.3695 20.37C55.7242 20.1927 56.1255 20.0387 56.5735 19.908C56.7882 19.8333 57.0822 19.7587 57.4555 19.684C57.8382 19.6 58.2535 19.516 58.7015 19.432C59.1588 19.348 59.6302 19.2687 60.1155 19.194C60.6008 19.11 61.0582 19.0307 61.4875 18.956C61.9262 18.8813 62.3135 18.816 62.6495 18.76C62.9855 18.704 63.2328 18.6573 63.3915 18.62C63.4008 18.4613 63.4008 18.2933 63.3915 18.116C63.3822 17.9387 63.3682 17.766 63.3495 17.598C63.3402 17.43 63.3215 17.2667 63.2935 17.108C63.2655 16.9493 63.2282 16.8093 63.1815 16.688C63.1068 16.3613 62.9808 16.0673 62.8035 15.806C62.6262 15.5353 62.4022 15.3113 62.1315 15.134C61.8608 14.9567 61.5435 14.8213 61.1795 14.728C60.8155 14.6347 60.4142 14.5927 59.9755 14.602C59.6768 14.602 59.3828 14.616 59.0935 14.644C58.8135 14.672 58.5382 14.728 58.2675 14.812C58.0062 14.8867 57.7448 14.9893 57.4835 15.12C57.2315 15.2507 56.9982 15.4187 56.7835 15.624C56.6062 15.7547 56.4522 15.918 56.3215 16.114C56.2002 16.31 56.0928 16.5153 55.9995 16.73C55.9155 16.9353 55.8502 17.1313 55.8035 17.318C55.7662 17.5047 55.7428 17.6493 55.7335 17.752L53.2975 17.612C53.3162 17.1267 53.3815 16.6833 53.4935 16.282C53.6148 15.8713 53.7735 15.498 53.9695 15.162C54.1748 14.826 54.4128 14.5227 54.6835 14.252C54.9542 13.972 55.2528 13.734 55.5795 13.538C56.2142 13.1273 56.9188 12.8473 57.6935 12.698C58.4682 12.5393 59.2475 12.46 60.0315 12.46C60.6755 12.4507 61.2682 12.5067 61.8095 12.628C62.3602 12.74 62.8548 12.9127 63.2935 13.146C63.7322 13.3793 64.1148 13.678 64.4415 14.042C64.7682 14.406 65.0388 14.84 65.2535 15.344C65.4308 15.7827 65.5615 16.268 65.6455 16.8C65.7388 17.3227 65.7808 17.8967 65.7715 18.522C65.7808 18.7087 65.7855 18.914 65.7855 19.138C65.7855 19.362 65.7808 19.5953 65.7715 19.838C65.7715 20.0807 65.7715 20.314 65.7715 20.538C65.7715 20.762 65.7715 20.9627 65.7715 21.14C65.7715 21.3827 65.7715 21.6207 65.7715 21.854C65.7808 22.0873 65.7855 22.3113 65.7855 22.526C65.7855 22.7407 65.7902 22.9413 65.7995 23.128C65.8088 23.3147 65.8135 23.4873 65.8135 23.646C65.8322 23.9353 65.8508 24.2807 65.8695 24.682C65.8975 25.074 65.9208 25.4753 65.9395 25.886C65.9675 26.2967 65.9955 26.6933 66.0235 27.076C66.0515 27.4493 66.0748 27.762 66.0935 28.014H63.7275C63.7182 27.8273 63.7042 27.58 63.6855 27.272C63.6762 26.9547 63.6622 26.6187 63.6435 26.264C63.6248 25.9093 63.6062 25.564 63.5875 25.228C63.5688 24.8827 63.5548 24.5887 63.5455 24.346C63.5362 24.29 63.5128 24.2433 63.4755 24.206C63.4475 24.1687 63.4102 24.15 63.3635 24.15C63.3168 24.1407 63.2702 24.1453 63.2235 24.164C63.1768 24.1827 63.1442 24.2153 63.1255 24.262C62.8548 24.8967 62.5375 25.4707 62.1735 25.984C61.8095 26.4973 61.3848 26.936 60.8995 27.3C60.4142 27.6547 59.8728 27.9253 59.2755 28.112C58.6782 28.308 58.0155 28.4013 57.2875 28.392ZM67.4421 28.014V12.88H69.7521L69.3181 17.416C69.3181 17.4907 69.3414 17.556 69.3881 17.612C69.4348 17.668 69.4908 17.696 69.5561 17.696C69.6121 17.696 69.6588 17.6773 69.6961 17.64C69.7428 17.6027 69.7754 17.5607 69.7941 17.514C69.8781 17.2153 70.0228 16.856 70.2281 16.436C70.4428 16.0067 70.6948 15.5773 70.9841 15.148C71.2828 14.7093 71.6094 14.3033 71.9641 13.93C72.3281 13.5473 72.7014 13.258 73.0841 13.062C73.2614 12.978 73.4528 12.9033 73.6581 12.838C73.8634 12.7633 74.0781 12.7027 74.3021 12.656C74.5261 12.6093 74.7548 12.572 74.9881 12.544C75.2214 12.516 75.4548 12.502 75.6881 12.502C76.5001 12.502 77.2094 12.6513 77.8161 12.95C78.4321 13.2487 78.9548 13.7013 79.3841 14.308C79.8134 14.9053 80.1308 15.6473 80.3361 16.534C80.5508 17.4113 80.6581 18.438 80.6581 19.614V28.014H78.2501V19.81C78.2501 18.9513 78.1801 18.2093 78.0401 17.584C77.9094 16.9493 77.7088 16.422 77.4381 16.002C77.1674 15.582 76.8361 15.2647 76.4441 15.05C76.0521 14.8353 75.5948 14.7327 75.0721 14.742C74.5214 14.7607 74.0128 14.8913 73.5461 15.134C73.0888 15.3673 72.6734 15.6707 72.3001 16.044C71.9361 16.408 71.6094 16.8187 71.3201 17.276C71.0308 17.7333 70.7834 18.2 70.5781 18.676C70.3728 19.1427 70.2094 19.5953 70.0881 20.034C69.9668 20.4633 69.8828 20.8367 69.8361 21.154V28.014H67.4421ZM92.9431 22.666L95.2951 22.946C95.2484 23.1793 95.1924 23.4173 95.1271 23.66C95.0711 23.8933 95.0058 24.122 94.9311 24.346C94.8564 24.57 94.7724 24.7847 94.6791 24.99C94.5951 25.186 94.5111 25.3633 94.4271 25.522C94.2311 25.858 94.0164 26.1567 93.7831 26.418C93.5591 26.6793 93.3071 26.9173 93.0271 27.132C92.7471 27.3467 92.4438 27.5333 92.1171 27.692C91.7998 27.8507 91.4591 27.9813 91.0951 28.084C90.7311 28.1867 90.3484 28.266 89.9471 28.322C89.5458 28.3873 89.1211 28.42 88.6731 28.42C88.0011 28.42 87.3851 28.364 86.8251 28.252C86.2651 28.14 85.7518 27.972 85.2851 27.748C84.8184 27.5333 84.4031 27.2813 84.0391 26.992C83.6751 26.7027 83.3484 26.376 83.0591 26.012C82.7791 25.648 82.5364 25.256 82.3311 24.836C82.1351 24.416 81.9671 23.9727 81.8271 23.506C81.6964 23.03 81.5938 22.5447 81.5191 22.05C81.4538 21.5553 81.4211 21.0513 81.4211 20.538C81.4211 19.978 81.4584 19.4507 81.5331 18.956C81.6078 18.452 81.7198 17.9527 81.8691 17.458C82.0184 16.9633 82.2004 16.5013 82.4151 16.072C82.6298 15.6427 82.8864 15.2413 83.1851 14.868C83.4744 14.4853 83.8011 14.1493 84.1651 13.86C84.5384 13.5707 84.9491 13.314 85.3971 13.09C85.8451 12.8847 86.3258 12.7307 86.8391 12.628C87.3618 12.516 87.9311 12.46 88.5471 12.46C89.1164 12.46 89.6484 12.5113 90.1431 12.614C90.6471 12.7073 91.1231 12.8567 91.5711 13.062C92.0098 13.258 92.4064 13.5007 92.7611 13.79C93.1251 14.07 93.4471 14.3873 93.7271 14.742C93.8671 14.9193 94.0024 15.1293 94.1331 15.372C94.2638 15.6147 94.3804 15.8713 94.4831 16.142C94.5951 16.4033 94.6838 16.674 94.7491 16.954C94.8238 17.234 94.8751 17.5047 94.9031 17.766L92.4251 17.934C92.4064 17.822 92.3784 17.7053 92.3411 17.584C92.3038 17.4533 92.2618 17.3227 92.2151 17.192C92.1684 17.052 92.1171 16.9167 92.0611 16.786C92.0051 16.6553 91.9444 16.5293 91.8791 16.408C91.7391 16.156 91.5618 15.9227 91.3471 15.708C91.1418 15.4933 90.8991 15.302 90.6191 15.134C90.3391 14.966 90.0218 14.84 89.6671 14.756C89.3218 14.672 88.9344 14.63 88.5051 14.63C88.1131 14.63 87.7491 14.6673 87.4131 14.742C87.0864 14.8167 86.7831 14.9287 86.5031 15.078C86.2231 15.2273 85.9664 15.4093 85.7331 15.624C85.4998 15.8293 85.2898 16.0673 85.1031 16.338C84.9164 16.6087 84.7531 16.9027 84.6131 17.22C84.4731 17.528 84.3518 17.864 84.2491 18.228C84.1558 18.592 84.0858 18.9607 84.0391 19.334C83.9924 19.698 83.9691 20.09 83.9691 20.51C83.9691 21.0793 84.0111 21.616 84.0951 22.12C84.1791 22.624 84.3051 23.0907 84.4731 23.52C84.6411 23.9587 84.8511 24.346 85.1031 24.682C85.3644 25.0087 85.6678 25.298 86.0131 25.55C86.3678 25.7927 86.7644 25.9793 87.2031 26.11C87.6511 26.2313 88.1458 26.292 88.6871 26.292C89.1071 26.292 89.4898 26.2547 89.8351 26.18C90.1898 26.1053 90.5164 25.998 90.8151 25.858C91.1044 25.7087 91.3658 25.536 91.5991 25.34C91.8324 25.1347 92.0378 24.9013 92.2151 24.64C92.2991 24.5187 92.3784 24.374 92.4531 24.206C92.5371 24.038 92.6071 23.8653 92.6631 23.688C92.7284 23.5107 92.7844 23.3333 92.8311 23.156C92.8778 22.9787 92.9151 22.8153 92.9431 22.666ZM107.9 28.448C107.928 29.316 107.807 30.1233 107.536 30.87C107.265 31.6167 106.869 32.2653 106.346 32.816C105.833 33.3667 105.212 33.8053 104.484 34.132C103.765 34.468 102.967 34.6593 102.09 34.706C101.269 34.7433 100.494 34.65 99.7661 34.426C99.0381 34.2113 98.3941 33.8847 97.8341 33.446C97.2741 33.0073 96.8121 32.466 96.4481 31.822C96.0841 31.178 95.8508 30.4593 95.7481 29.666L97.9181 29.218C97.9741 29.7313 98.1141 30.1933 98.3381 30.604C98.5621 31.0147 98.8515 31.36 99.2061 31.64C99.5608 31.92 99.9715 32.13 100.438 32.27C100.905 32.4193 101.395 32.4847 101.908 32.466C102.58 32.438 103.14 32.3213 103.588 32.116C104.036 31.92 104.395 31.654 104.666 31.318C104.946 30.9913 105.156 30.6087 105.296 30.17C105.436 29.7407 105.529 29.2833 105.576 28.798C105.632 28.322 105.66 27.8273 105.66 27.314C105.669 26.8007 105.679 26.306 105.688 25.83C105.697 25.746 105.711 25.62 105.73 25.452C105.749 25.284 105.767 25.1067 105.786 24.92C105.814 24.7333 105.837 24.556 105.856 24.388C105.884 24.2107 105.898 24.08 105.898 23.996C105.907 23.9307 105.893 23.8793 105.856 23.842C105.819 23.7953 105.772 23.7673 105.716 23.758C105.66 23.7393 105.604 23.744 105.548 23.772C105.501 23.8 105.473 23.8467 105.464 23.912C105.305 24.528 105.109 25.1113 104.876 25.662C104.643 26.2033 104.344 26.6793 103.98 27.09C103.616 27.5007 103.177 27.8227 102.664 28.056C102.16 28.2893 101.544 28.4013 100.816 28.392C99.7428 28.3733 98.8515 28.1353 98.1421 27.678C97.4328 27.2207 96.8681 26.6373 96.4481 25.928C96.0375 25.2093 95.7481 24.4067 95.5801 23.52C95.4121 22.624 95.3281 21.728 95.3281 20.832V12.88H97.7921V20.566C97.7921 21.1447 97.8295 21.7513 97.9041 22.386C97.9788 23.0113 98.1328 23.59 98.3661 24.122C98.6088 24.6447 98.9495 25.0787 99.3881 25.424C99.8268 25.76 100.405 25.928 101.124 25.928C101.712 25.928 102.221 25.83 102.65 25.634C103.079 25.438 103.443 25.1767 103.742 24.85C104.05 24.514 104.302 24.1267 104.498 23.688C104.703 23.24 104.867 22.7733 104.988 22.288C105.109 21.8027 105.198 21.3127 105.254 20.818C105.319 20.314 105.366 19.838 105.394 19.39V12.88H107.914L107.9 28.448ZM112.498 28L108.494 12.88H110.986L113.996 25.704C114.006 25.7507 114.029 25.788 114.066 25.816C114.104 25.844 114.146 25.858 114.192 25.858H114.304C114.36 25.858 114.407 25.844 114.444 25.816C114.482 25.788 114.505 25.7507 114.514 25.704L117.426 12.88H120.436L123.348 25.704C123.358 25.7507 123.381 25.788 123.418 25.816C123.456 25.844 123.498 25.858 123.544 25.858H123.642C123.689 25.858 123.726 25.844 123.754 25.816C123.792 25.788 123.815 25.7507 123.824 25.704L126.848 12.88H129.326L125.294 28H121.878L119.106 15.19C119.097 15.1433 119.074 15.106 119.036 15.078C118.999 15.05 118.952 15.036 118.896 15.036C118.85 15.036 118.808 15.05 118.77 15.078C118.733 15.106 118.71 15.1433 118.7 15.19L115.942 28H112.498ZM131.541 18.942L140.389 18.886C140.37 18.5313 140.328 18.2047 140.263 17.906C140.207 17.598 140.123 17.3087 140.011 17.038C139.843 16.6273 139.638 16.2773 139.395 15.988C139.162 15.6893 138.882 15.4373 138.555 15.232C138.228 15.0173 137.883 14.8587 137.519 14.756C137.155 14.644 136.758 14.588 136.329 14.588C136.096 14.588 135.848 14.6067 135.587 14.644C135.335 14.672 135.088 14.7187 134.845 14.784C134.602 14.84 134.369 14.9147 134.145 15.008C133.93 15.092 133.739 15.1947 133.571 15.316C133.226 15.5493 132.922 15.834 132.661 16.17C132.4 16.4967 132.171 16.884 131.975 17.332C131.872 17.5653 131.784 17.8173 131.709 18.088C131.634 18.3587 131.578 18.6433 131.541 18.942ZM136.217 28.42C135.62 28.42 135.06 28.3733 134.537 28.28C134.024 28.196 133.538 28.0607 133.081 27.874C132.624 27.6873 132.208 27.468 131.835 27.216C131.462 26.9547 131.121 26.6513 130.813 26.306C130.505 25.9607 130.234 25.5873 130.001 25.186C129.777 24.7847 129.59 24.3507 129.441 23.884C129.282 23.408 129.166 22.8947 129.091 22.344C129.016 21.7933 128.979 21.2287 128.979 20.65C128.979 20.0527 129.016 19.4833 129.091 18.942C129.175 18.3913 129.296 17.8687 129.455 17.374C129.614 16.87 129.8 16.4033 130.015 15.974C130.239 15.5447 130.5 15.148 130.799 14.784C131.098 14.4107 131.424 14.084 131.779 13.804C132.143 13.5147 132.549 13.2673 132.997 13.062C133.221 12.9687 133.468 12.8847 133.739 12.81C134.01 12.726 134.29 12.6607 134.579 12.614C134.868 12.558 135.162 12.5207 135.461 12.502C135.76 12.474 136.049 12.46 136.329 12.46C136.833 12.46 137.309 12.502 137.757 12.586C138.205 12.67 138.63 12.796 139.031 12.964C139.432 13.1227 139.806 13.328 140.151 13.58C140.496 13.832 140.809 14.1307 141.089 14.476C141.369 14.8213 141.616 15.1993 141.831 15.61C142.046 16.0207 142.228 16.4827 142.377 16.996C142.452 17.2667 142.512 17.542 142.559 17.822C142.615 18.0927 142.657 18.3773 142.685 18.676C142.722 18.9747 142.746 19.2873 142.755 19.614C142.764 19.9407 142.764 20.2813 142.755 20.636L131.401 20.72C131.42 21.6067 131.527 22.4047 131.723 23.114C131.928 23.8233 132.227 24.416 132.619 24.892C133.02 25.3773 133.52 25.7413 134.117 25.984C134.724 26.2267 135.433 26.348 136.245 26.348C136.562 26.348 136.856 26.3293 137.127 26.292C137.407 26.2547 137.668 26.1987 137.911 26.124C138.34 25.9933 138.714 25.7833 139.031 25.494C139.348 25.1953 139.614 24.878 139.829 24.542C140.044 24.1967 140.216 23.8607 140.347 23.534C140.478 23.198 140.571 22.9273 140.627 22.722L142.825 22.974C142.806 23.198 142.76 23.464 142.685 23.772C142.61 24.08 142.498 24.402 142.349 24.738C142.2 25.074 142.013 25.4147 141.789 25.76C141.565 26.1053 141.299 26.432 140.991 26.74C140.683 27.0387 140.333 27.3093 139.941 27.552C139.549 27.7947 139.106 27.9813 138.611 28.112C138.256 28.2053 137.883 28.28 137.491 28.336C137.099 28.392 136.674 28.42 136.217 28.42ZM148.249 26.306C148.463 26.306 148.678 26.2873 148.893 26.25C149.117 26.2127 149.341 26.1613 149.565 26.096C149.677 26.0587 149.793 26.0213 149.915 25.984C150.045 25.9373 150.176 25.8907 150.307 25.844C150.437 25.788 150.563 25.732 150.685 25.676C150.806 25.6107 150.923 25.5407 151.035 25.466C151.436 25.1953 151.795 24.878 152.113 24.514C152.439 24.15 152.715 23.758 152.939 23.338C153.172 22.918 153.349 22.4747 153.471 22.008C153.592 21.532 153.653 21.042 153.653 20.538C153.653 20.5193 153.653 20.496 153.653 20.468C153.653 20.44 153.653 20.412 153.653 20.384C153.653 20.3467 153.653 20.314 153.653 20.286C153.653 20.2487 153.653 20.2253 153.653 20.216C153.634 20.216 153.541 20.2347 153.373 20.272C153.214 20.3 153.023 20.3373 152.799 20.384C152.584 20.4307 152.36 20.4773 152.127 20.524C151.903 20.5613 151.711 20.5987 151.553 20.636C151.207 20.7107 150.857 20.7807 150.503 20.846C150.157 20.902 149.812 20.9627 149.467 21.028C149.028 21.1213 148.636 21.2147 148.291 21.308C147.945 21.392 147.637 21.4853 147.367 21.588C147.087 21.6907 146.835 21.8027 146.611 21.924C146.396 22.036 146.209 22.1947 146.051 22.4C145.967 22.4933 145.892 22.5913 145.827 22.694C145.771 22.7873 145.724 22.89 145.687 23.002C145.649 23.114 145.617 23.2353 145.589 23.366C145.57 23.4967 145.561 23.646 145.561 23.814C145.561 24.234 145.626 24.6027 145.757 24.92C145.897 25.228 146.088 25.4847 146.331 25.69C146.573 25.8953 146.853 26.0493 147.171 26.152C147.497 26.2547 147.857 26.306 148.249 26.306ZM147.577 28.392C146.905 28.392 146.289 28.294 145.729 28.098C145.178 27.902 144.702 27.6173 144.301 27.244C143.899 26.8613 143.591 26.3947 143.377 25.844C143.162 25.2933 143.059 24.6727 143.069 23.982C143.059 23.6647 143.087 23.3567 143.153 23.058C143.227 22.75 143.335 22.4653 143.475 22.204C143.615 21.9333 143.783 21.6907 143.979 21.476C144.184 21.252 144.417 21.0653 144.679 20.916C144.977 20.7293 145.304 20.5473 145.659 20.37C146.013 20.1927 146.415 20.0387 146.863 19.908C147.077 19.8333 147.371 19.7587 147.745 19.684C148.127 19.6 148.543 19.516 148.991 19.432C149.448 19.348 149.919 19.2687 150.405 19.194C150.89 19.11 151.347 19.0307 151.777 18.956C152.215 18.8813 152.603 18.816 152.939 18.76C153.275 18.704 153.522 18.6573 153.681 18.62C153.69 18.4613 153.69 18.2933 153.681 18.116C153.671 17.9387 153.657 17.766 153.639 17.598C153.629 17.43 153.611 17.2667 153.583 17.108C153.555 16.9493 153.517 16.8093 153.471 16.688C153.396 16.3613 153.27 16.0673 153.093 15.806C152.915 15.5353 152.691 15.3113 152.421 15.134C152.15 14.9567 151.833 14.8213 151.469 14.728C151.105 14.6347 150.703 14.5927 150.265 14.602C149.966 14.602 149.672 14.616 149.383 14.644C149.103 14.672 148.827 14.728 148.557 14.812C148.295 14.8867 148.034 14.9893 147.773 15.12C147.521 15.2507 147.287 15.4187 147.073 15.624C146.895 15.7547 146.741 15.918 146.611 16.114C146.489 16.31 146.382 16.5153 146.289 16.73C146.205 16.9353 146.139 17.1313 146.093 17.318C146.055 17.5047 146.032 17.6493 146.023 17.752L143.587 17.612C143.605 17.1267 143.671 16.6833 143.783 16.282C143.904 15.8713 144.063 15.498 144.259 15.162C144.464 14.826 144.702 14.5227 144.973 14.252C145.243 13.972 145.542 13.734 145.869 13.538C146.503 13.1273 147.208 12.8473 147.983 12.698C148.757 12.5393 149.537 12.46 150.321 12.46C150.965 12.4507 151.557 12.5067 152.099 12.628C152.649 12.74 153.144 12.9127 153.583 13.146C154.021 13.3793 154.404 13.678 154.731 14.042C155.057 14.406 155.328 14.84 155.543 15.344C155.72 15.7827 155.851 16.268 155.935 16.8C156.028 17.3227 156.07 17.8967 156.061 18.522C156.07 18.7087 156.075 18.914 156.075 19.138C156.075 19.362 156.07 19.5953 156.061 19.838C156.061 20.0807 156.061 20.314 156.061 20.538C156.061 20.762 156.061 20.9627 156.061 21.14C156.061 21.3827 156.061 21.6207 156.061 21.854C156.07 22.0873 156.075 22.3113 156.075 22.526C156.075 22.7407 156.079 22.9413 156.089 23.128C156.098 23.3147 156.103 23.4873 156.103 23.646C156.121 23.9353 156.14 24.2807 156.159 24.682C156.187 25.074 156.21 25.4753 156.229 25.886C156.257 26.2967 156.285 26.6933 156.313 27.076C156.341 27.4493 156.364 27.762 156.383 28.014H154.017C154.007 27.8273 153.993 27.58 153.975 27.272C153.965 26.9547 153.951 26.6187 153.933 26.264C153.914 25.9093 153.895 25.564 153.877 25.228C153.858 24.8827 153.844 24.5887 153.835 24.346C153.825 24.29 153.802 24.2433 153.765 24.206C153.737 24.1687 153.699 24.15 153.653 24.15C153.606 24.1407 153.559 24.1453 153.513 24.164C153.466 24.1827 153.433 24.2153 153.415 24.262C153.144 24.8967 152.827 25.4707 152.463 25.984C152.099 26.4973 151.674 26.936 151.189 27.3C150.703 27.6547 150.162 27.9253 149.565 28.112C148.967 28.308 148.305 28.4013 147.577 28.392ZM157.745 28V12.88H160.027L159.607 17.696C159.607 17.7707 159.626 17.836 159.663 17.892C159.71 17.9387 159.77 17.962 159.845 17.962C159.901 17.962 159.948 17.9433 159.985 17.906C160.032 17.8687 160.064 17.822 160.083 17.766C160.139 17.4767 160.209 17.178 160.293 16.87C160.386 16.562 160.494 16.2587 160.615 15.96C160.746 15.652 160.895 15.3533 161.063 15.064C161.231 14.7747 161.422 14.504 161.637 14.252C161.88 13.8973 162.16 13.6127 162.477 13.398C162.794 13.174 163.144 12.9967 163.527 12.866C163.751 12.726 163.989 12.628 164.241 12.572C164.502 12.5067 164.782 12.474 165.081 12.474C165.296 12.474 165.496 12.4927 165.683 12.53C165.879 12.558 166.07 12.6 166.257 12.656L165.991 15.358C165.926 15.3113 165.832 15.2647 165.711 15.218C165.599 15.1713 165.473 15.1293 165.333 15.092C165.193 15.0547 165.053 15.0267 164.913 15.008C164.773 14.9893 164.638 14.98 164.507 14.98C164.32 14.9707 164.134 14.9847 163.947 15.022C163.76 15.05 163.574 15.0967 163.387 15.162C163.21 15.2273 163.037 15.3113 162.869 15.414C162.701 15.5073 162.538 15.6147 162.379 15.736C162.08 15.9973 161.81 16.3053 161.567 16.66C161.334 17.0053 161.119 17.402 160.923 17.85C160.839 18.074 160.76 18.3073 160.685 18.55C160.61 18.7833 160.545 19.026 160.489 19.278C160.377 19.698 160.302 20.1227 160.265 20.552C160.237 20.972 160.223 21.4013 160.223 21.84V28H157.745Z" fill="white"/>
</svg>
