<svg width="154" height="35" viewBox="0 0 154 35" fill="none" xmlns="http://www.w3.org/2000/svg">
<path d="M13.6318 6.125L3.21094 12.1415V17.3373L13.6318 11.3208H20.1734V6.125H13.6318Z" fill="white"/>
<path d="M13.6318 23.6792L3.21094 17.6627V22.8585L13.6318 28.875V23.6792Z" fill="white"/>
<path d="M23.0244 28.875L33.4453 22.8585L33.4453 17.6627L23.0244 23.6792L16.4828 23.6792L16.4828 28.875L23.0244 28.875Z" fill="white"/>
<path d="M23.0244 11.3208L33.4453 17.3373L33.4453 12.1415L23.0244 6.12503L23.0244 11.3208Z" fill="white"/>
<path d="M47.7787 26.25C46.5802 26.25 45.4651 26.03 44.4335 25.5901C43.417 25.1501 42.5219 24.5432 41.7482 23.7695C40.9896 22.9806 40.3979 22.0552 39.9731 20.9932C39.5483 19.9312 39.3359 18.763 39.3359 17.4886C39.3359 16.2294 39.5407 15.0688 39.9504 14.0068C40.3752 12.9297 40.9668 12.0042 41.7254 11.2305C42.484 10.4416 43.3715 9.83474 44.388 9.40995C45.4044 8.96998 46.5195 8.75 47.7332 8.75C48.9317 8.75 50.0013 8.95481 50.9419 9.36443C51.8977 9.77406 52.7018 10.3126 53.3541 10.9802C54.0065 11.6325 54.4768 12.3456 54.7651 13.1193L52.3756 14.2799C52.0267 13.3545 51.4502 12.6111 50.6461 12.0497C49.842 11.4732 48.871 11.185 47.7332 11.185C46.6105 11.185 45.6168 11.4505 44.7521 11.9815C43.8873 12.5125 43.2122 13.2483 42.7267 14.1889C42.2564 15.1295 42.0212 16.2294 42.0212 17.4886C42.0212 18.7478 42.264 19.8553 42.7495 20.8111C43.2501 21.7517 43.9328 22.4875 44.7976 23.0185C45.6623 23.5344 46.6561 23.7923 47.7787 23.7923C48.7193 23.7923 49.5765 23.6026 50.3502 23.2233C51.1391 22.8289 51.7688 22.2827 52.2391 21.5849C52.7094 20.8718 52.9445 20.045 52.9445 19.1044V17.9438L54.1506 19.0361H47.7332V16.7604H55.6071V18.3534C55.6071 19.5974 55.3947 20.7125 54.9699 21.6986C54.5451 22.6696 53.9686 23.4964 53.2404 24.1791C52.5121 24.8618 51.6777 25.3777 50.7371 25.7266C49.7965 26.0755 48.8104 26.25 47.7787 26.25Z" fill="white"/>
<path d="M56.6761 25.9769V8.75H59.2476V25.9769H56.6761Z" fill="white"/>
<path d="M66.7714 26.25C65.5881 26.25 64.5033 25.9693 63.5172 25.408C62.5462 24.8467 61.7725 24.0805 61.196 23.1096C60.6195 22.1386 60.3312 21.0387 60.3312 19.8098C60.3312 18.5658 60.6195 17.4659 61.196 16.5101C61.7725 15.5391 62.5462 14.7806 63.5172 14.2344C64.4882 13.6731 65.5729 13.3924 66.7714 13.3924C67.9851 13.3924 69.0699 13.6731 70.0257 14.2344C70.9966 14.7806 71.7628 15.5391 72.3241 16.5101C72.9006 17.4659 73.1889 18.5658 73.1889 19.8098C73.1889 21.0539 72.9006 22.1614 72.3241 23.1323C71.7476 24.1033 70.9739 24.8694 70.0029 25.4308C69.0319 25.9769 67.9548 26.25 66.7714 26.25ZM66.7714 23.8605C67.4996 23.8605 68.1444 23.6861 68.7058 23.3371C69.2671 22.9882 69.7071 22.5103 70.0257 21.9034C70.3594 21.2814 70.5263 20.5835 70.5263 19.8098C70.5263 19.0361 70.3594 18.3458 70.0257 17.7389C69.7071 17.1321 69.2671 16.6542 68.7058 16.3053C68.1444 15.9563 67.4996 15.7819 66.7714 15.7819C66.0584 15.7819 65.4136 15.9563 64.8371 16.3053C64.2758 16.6542 63.8282 17.1321 63.4944 17.7389C63.1758 18.3458 63.0165 19.0361 63.0165 19.8098C63.0165 20.5835 63.1758 21.2814 63.4944 21.9034C63.8282 22.5103 64.2758 22.9882 64.8371 23.3371C65.4136 23.6861 66.0584 23.8605 66.7714 23.8605Z" fill="white"/>
<path d="M80.8538 26.25C79.898 26.25 79.0257 26.0528 78.2368 25.6583C77.463 25.2639 76.8638 24.695 76.439 23.9516L76.7348 23.4737V25.9769H74.2771V8.75H76.8486V16.2142L76.439 15.6226C76.8941 14.9247 77.501 14.3785 78.2595 13.9841C79.0181 13.5896 79.8829 13.3924 80.8538 13.3924C82.022 13.3924 83.0688 13.6731 83.9943 14.2344C84.9349 14.7957 85.6707 15.5619 86.2017 16.5328C86.7478 17.5038 87.0209 18.5961 87.0209 19.8098C87.0209 21.0235 86.7478 22.1158 86.2017 23.0868C85.6707 24.0578 84.9425 24.8315 84.017 25.408C83.0916 25.9693 82.0372 26.25 80.8538 26.25ZM80.6035 23.8605C81.3317 23.8605 81.9765 23.6861 82.5378 23.3371C83.0992 22.9882 83.5391 22.5103 83.8577 21.9034C84.1915 21.2814 84.3584 20.5835 84.3584 19.8098C84.3584 19.0361 84.1915 18.3458 83.8577 17.7389C83.5391 17.1321 83.0992 16.6542 82.5378 16.3053C81.9765 15.9563 81.3317 15.7819 80.6035 15.7819C79.8904 15.7819 79.2457 15.9563 78.6692 16.3053C78.1078 16.6542 77.6603 17.1321 77.3265 17.7389C77.0079 18.3458 76.8486 19.0361 76.8486 19.8098C76.8486 20.5835 77.0079 21.2814 77.3265 21.9034C77.6603 22.5103 78.1078 22.9882 78.6692 23.3371C79.2457 23.6861 79.8904 23.8605 80.6035 23.8605Z" fill="white"/>
<path d="M91.7867 26.25C90.9523 26.25 90.2165 26.1059 89.5793 25.8176C88.9573 25.5142 88.4718 25.1046 88.1228 24.5888C87.7739 24.0578 87.5994 23.4357 87.5994 22.7227C87.5994 22.0552 87.7436 21.4559 88.0318 20.9249C88.3352 20.3939 88.798 19.9464 89.42 19.5822C90.042 19.2181 90.8233 18.9602 91.7639 18.8085L96.0422 18.1031V20.1284L92.2646 20.7884C91.5819 20.9097 91.0812 21.1297 90.7626 21.4483C90.444 21.7517 90.2847 22.1462 90.2847 22.6317C90.2847 23.102 90.4592 23.4888 90.8081 23.7923C91.1723 24.0805 91.635 24.2246 92.1963 24.2246C92.8942 24.2246 93.501 24.0729 94.0169 23.7695C94.5478 23.4661 94.9575 23.064 95.2457 22.5634C95.534 22.0476 95.6781 21.4787 95.6781 20.8566V17.6934C95.6781 17.0866 95.4505 16.5935 94.9954 16.2142C94.5554 15.8198 93.9638 15.6226 93.2204 15.6226C92.5377 15.6226 91.9384 15.8046 91.4226 16.1687C90.9219 16.5177 90.5502 16.9728 90.3075 17.5341L88.1684 16.4646C88.3959 15.8577 88.7676 15.3267 89.2834 14.8716C89.7993 14.4013 90.3985 14.0372 91.0812 13.7793C91.7791 13.5213 92.5149 13.3924 93.2886 13.3924C94.2596 13.3924 95.1168 13.5744 95.8602 13.9386C96.6187 14.3027 97.2028 14.8109 97.6124 15.4633C98.0372 16.1005 98.2496 16.8438 98.2496 17.6934V25.9769H95.7919V23.7467L96.3153 23.815C96.027 24.3157 95.6553 24.748 95.2002 25.1122C94.7602 25.4763 94.252 25.7569 93.6755 25.9542C93.1142 26.1514 92.4846 26.25 91.7867 26.25Z" fill="white"/>
<path d="M99.8341 25.9769V8.75H102.406V25.9769H99.8341Z" fill="white"/>
<path d="M109.838 26.25C108.609 26.25 107.517 25.9693 106.561 25.408C105.621 24.8315 104.87 24.0578 104.308 23.0868C103.762 22.1158 103.489 21.0159 103.489 19.7871C103.489 18.5734 103.762 17.481 104.308 16.5101C104.855 15.5391 105.606 14.7806 106.561 14.2344C107.517 13.6731 108.609 13.3924 109.838 13.3924C110.673 13.3924 111.454 13.5441 112.182 13.8475C112.911 14.1358 113.54 14.5378 114.071 15.0536C114.617 15.5695 115.019 16.1687 115.277 16.8514L113.024 17.8982C112.766 17.2611 112.349 16.7528 111.773 16.3735C111.211 15.9791 110.567 15.7819 109.838 15.7819C109.14 15.7819 108.511 15.9563 107.95 16.3053C107.403 16.639 106.971 17.1169 106.652 17.7389C106.334 18.3458 106.175 19.0361 106.175 19.8098C106.175 20.5835 106.334 21.2814 106.652 21.9034C106.971 22.5103 107.403 22.9882 107.95 23.3371C108.511 23.6861 109.14 23.8605 109.838 23.8605C110.582 23.8605 111.227 23.6709 111.773 23.2916C112.334 22.8972 112.751 22.3738 113.024 21.7214L115.277 22.791C115.035 23.4433 114.64 24.035 114.094 24.566C113.563 25.0818 112.933 25.4914 112.205 25.7949C111.477 26.0983 110.688 26.25 109.838 26.25Z" fill="white"/>
<path d="M116.368 25.9769V8.75H118.94V16.0777L118.53 15.7591C118.834 14.9854 119.319 14.4013 119.987 14.0068C120.654 13.5972 121.428 13.3924 122.308 13.3924C123.218 13.3924 124.022 13.5896 124.72 13.9841C125.418 14.3785 125.964 14.9247 126.359 15.6226C126.753 16.3204 126.95 17.1169 126.95 18.012V25.9769H124.401V18.7175C124.401 18.0955 124.28 17.5721 124.037 17.1473C123.81 16.7073 123.491 16.3735 123.082 16.146C122.672 15.9032 122.202 15.7819 121.671 15.7819C121.155 15.7819 120.685 15.9032 120.26 16.146C119.85 16.3735 119.524 16.7073 119.281 17.1473C119.054 17.5872 118.94 18.1106 118.94 18.7175V25.9769H116.368Z" fill="white"/>
<path d="M131.967 26.25C131.132 26.25 130.396 26.1059 129.759 25.8176C129.137 25.5142 128.652 25.1046 128.303 24.5888C127.954 24.0578 127.779 23.4357 127.779 22.7227C127.779 22.0552 127.924 21.4559 128.212 20.9249C128.515 20.3939 128.978 19.9464 129.6 19.5822C130.222 19.2181 131.003 18.9602 131.944 18.8085L136.222 18.1031V20.1284L132.445 20.7884C131.762 20.9097 131.261 21.1297 130.943 21.4483C130.624 21.7517 130.465 22.1462 130.465 22.6317C130.465 23.102 130.639 23.4888 130.988 23.7923C131.352 24.0805 131.815 24.2246 132.376 24.2246C133.074 24.2246 133.681 24.0729 134.197 23.7695C134.728 23.4661 135.138 23.064 135.426 22.5634C135.714 22.0476 135.858 21.4787 135.858 20.8566V17.6934C135.858 17.0866 135.631 16.5935 135.175 16.2142C134.735 15.8198 134.144 15.6226 133.4 15.6226C132.718 15.6226 132.118 15.8046 131.603 16.1687C131.102 16.5177 130.73 16.9728 130.488 17.5341L128.348 16.4646C128.576 15.8577 128.948 15.3267 129.463 14.8716C129.979 14.4013 130.579 14.0372 131.261 13.7793C131.959 13.5213 132.695 13.3924 133.469 13.3924C134.44 13.3924 135.297 13.5744 136.04 13.9386C136.799 14.3027 137.383 14.8109 137.792 15.4633C138.217 16.1005 138.43 16.8438 138.43 17.6934V25.9769H135.972V23.7467L136.495 23.815C136.207 24.3157 135.835 24.748 135.38 25.1122C134.94 25.4763 134.432 25.7569 133.856 25.9542C133.294 26.1514 132.665 26.25 131.967 26.25Z" fill="white"/>
<path d="M140.014 25.9769V13.6655H142.472V16.146L142.244 15.7819C142.517 14.9778 142.957 14.4013 143.564 14.0523C144.171 13.6882 144.899 13.5062 145.749 13.5062H146.5V15.8501H145.43C144.581 15.8501 143.89 16.1156 143.359 16.6466C142.844 17.1624 142.586 17.9058 142.586 18.8768V25.9769H140.014Z" fill="white"/>
<path d="M152.384 26.1135C151.094 26.1135 150.093 25.7494 149.38 25.0211C148.667 24.2929 148.311 23.2689 148.311 21.949V15.9867H146.149V13.6655H146.49C147.067 13.6655 147.514 13.4986 147.833 13.1648C148.151 12.8311 148.311 12.3759 148.311 11.7994V10.8436H150.882V13.6655H153.681V15.9867H150.882V21.8352C150.882 22.26 150.95 22.6241 151.087 22.9275C151.223 23.2158 151.443 23.4433 151.747 23.6102C152.05 23.7619 152.445 23.8378 152.93 23.8378C153.052 23.8378 153.188 23.8302 153.34 23.815C153.492 23.7998 153.636 23.7847 153.772 23.7695V25.9769C153.56 26.0073 153.325 26.0376 153.067 26.0679C152.809 26.0983 152.581 26.1135 152.384 26.1135Z" fill="white"/>
</svg>
