<svg width="16" height="17" viewBox="0 0 16 17" fill="none" xmlns="http://www.w3.org/2000/svg">
<g clip-path="url(#clip0_130_9561)">
<path d="M8 14.5C11.3137 14.5 14 11.8137 14 8.5C14 5.18629 11.3137 2.5 8 2.5C4.68629 2.5 2 5.18629 2 8.5C2 11.8137 4.68629 14.5 8 14.5Z" stroke="white" stroke-linecap="round" stroke-linejoin="round"/>
<path d="M10.5 8.5C10.5 12.5 8 14.5 8 14.5C8 14.5 5.5 12.5 5.5 8.5C5.5 4.5 8 2.5 8 2.5C8 2.5 10.5 4.5 10.5 8.5Z" stroke="white" stroke-linecap="round" stroke-linejoin="round"/>
<path d="M2.34375 6.5H13.6612" stroke="white" stroke-linecap="round" stroke-linejoin="round"/>
<path d="M2.34375 10.5H13.6612" stroke="white" stroke-linecap="round" stroke-linejoin="round"/>
</g>
<defs>
<clipPath id="clip0_130_9561">
<rect width="16" height="16" fill="white" transform="translate(0 0.5)"/>
</clipPath>
</defs>
</svg>
