<svg width="15" height="15" viewBox="0 0 15 15" fill="none" xmlns="http://www.w3.org/2000/svg">
<g clip-path="url(#clip0_130_9572)">
<path d="M13.125 11.7188V12.1875C13.125 12.6848 12.9275 13.1617 12.5758 13.5133C12.2242 13.865 11.7473 14.0625 11.25 14.0625H7.96875" stroke="white" stroke-linecap="round" stroke-linejoin="round"/>
<path d="M13.125 7.5H11.25C11.0014 7.5 10.7629 7.59877 10.5871 7.77459C10.4113 7.9504 10.3125 8.18886 10.3125 8.4375V10.7812C10.3125 11.0299 10.4113 11.2683 10.5871 11.4442C10.7629 11.62 11.0014 11.7188 11.25 11.7188H13.125V7.5ZM13.125 7.5C13.125 6.76131 12.9795 6.02986 12.6968 5.34741C12.4141 4.66495 11.9998 4.04485 11.4775 3.52252C10.9551 3.00019 10.3351 2.58586 9.65259 2.30318C8.97014 2.02049 8.23869 1.875 7.5 1.875C6.76131 1.875 6.02986 2.02049 5.34741 2.30318C4.66495 2.58586 4.04485 3.00019 3.52252 3.52252C3.00019 4.04485 2.58586 4.66495 2.30318 5.34741C2.02049 6.02986 1.875 6.76131 1.875 7.5M1.875 7.5V10.7812C1.875 11.0299 1.97377 11.2683 2.14959 11.4442C2.3254 11.62 2.56386 11.7188 2.8125 11.7188H3.75C3.99864 11.7188 4.2371 11.62 4.41291 11.4442C4.58873 11.2683 4.6875 11.0299 4.6875 10.7812V8.4375C4.6875 8.18886 4.58873 7.9504 4.41291 7.77459C4.2371 7.59877 3.99864 7.5 3.75 7.5H1.875Z" stroke="white" stroke-linecap="round" stroke-linejoin="round"/>
</g>
<defs>
<clipPath id="clip0_130_9572">
<rect width="15" height="15" fill="white"/>
</clipPath>
</defs>
</svg>
