<svg width="20" height="20" viewBox="0 0 20 20" fill="none" xmlns="http://www.w3.org/2000/svg">
<g clip-path="url(#clip0_377_4509)">
<path d="M14.1641 0H5.83073C4.72607 0.00132321 3.66703 0.440735 2.88591 1.22185C2.1048 2.00296 1.66539 3.062 1.66406 4.16667V16.6667C1.66406 17.5507 2.01525 18.3986 2.64037 19.0237C3.26549 19.6488 4.11334 20 4.9974 20H14.1641C15.2687 19.9987 16.3278 19.5593 17.1089 18.7782C17.89 17.997 18.3294 16.938 18.3307 15.8333V4.16667C18.3294 3.062 17.89 2.00296 17.1089 1.22185C16.3278 0.440735 15.2687 0.00132321 14.1641 0V0ZM16.6641 4.16667V13.3333H6.66406V1.66667H14.1641C14.8271 1.66667 15.463 1.93006 15.9318 2.3989C16.4007 2.86774 16.6641 3.50363 16.6641 4.16667ZM4.9974 1.81V13.3333C4.41209 13.3328 3.83707 13.4872 3.33073 13.7808V4.16667C3.3308 3.64974 3.49111 3.14555 3.78959 2.7235C4.08807 2.30145 4.51003 1.98231 4.9974 1.81V1.81ZM14.1641 18.3333H4.9974C4.55537 18.3333 4.13145 18.1577 3.81888 17.8452C3.50632 17.5326 3.33073 17.1087 3.33073 16.6667C3.33073 16.2246 3.50632 15.8007 3.81888 15.4882C4.13145 15.1756 4.55537 15 4.9974 15H16.6641V15.8333C16.6641 16.4964 16.4007 17.1323 15.9318 17.6011C15.463 18.0699 14.8271 18.3333 14.1641 18.3333Z" fill="white" fill-opacity="0.4"/>
</g>
<defs>
<clipPath id="clip0_377_4509">
<rect width="20" height="20" fill="white"/>
</clipPath>
</defs>
</svg>
