<svg width="20" height="20" viewBox="0 0 20 20" fill="none" xmlns="http://www.w3.org/2000/svg">
<path fill-rule="evenodd" clip-rule="evenodd" d="M8.39506 0C8.69687 0 8.9986 0 9.30041 0C9.27309 2.96175 9.30058 5.90941 9.38272 8.84297C9.46502 8.81545 9.51992 8.76033 9.54733 8.67769C9.87654 8.40223 10.1784 8.09917 10.4527 7.76859C10.8093 7.46554 11.1385 7.13496 11.4403 6.77686C12.0714 6.19835 12.6749 5.59229 13.251 4.95868C13.6077 4.65564 13.9369 4.32507 14.2387 3.96694C14.8805 3.36384 15.5115 2.74401 16.1317 2.10744C16.3199 2.1051 16.4845 2.17397 16.6255 2.31405C16.9792 2.71057 17.3495 3.09624 17.7366 3.47107C17.8174 3.57512 17.8449 3.68531 17.8189 3.80165C16.1448 5.46897 14.4849 7.14942 12.8395 8.84297C12.207 9.3405 11.6309 9.89149 11.1111 10.4959C11.0664 10.5008 11.039 10.5283 11.0288 10.5785C14.0187 10.6612 17.0091 10.6887 20 10.6612C19.969 11.4543 19.8318 12.2256 19.5885 12.9752C16.7626 12.9614 13.9368 12.9752 11.1111 13.0165C12.6981 14.624 14.2894 16.208 15.8848 17.7686C15.9375 17.8498 15.9923 17.9324 16.0494 18.0165C15.4017 18.4932 14.7159 18.9064 13.9918 19.2562C12.9476 18.2351 11.905 17.2159 10.8642 16.1983C10.7545 16.0331 10.6173 15.8953 10.4527 15.7851C10.1235 15.3994 9.76683 15.0413 9.38272 14.7107C9.30066 16.4595 9.27317 18.2226 9.30041 20C9.21811 20 9.1358 20 9.0535 20C8.60658 19.9986 8.16765 19.9436 7.73663 19.8347C7.58 19.8102 7.4428 19.7551 7.3251 19.6694C7.26675 19.5947 7.18444 19.5672 7.07819 19.5868C7.1056 17.933 7.07819 16.2801 6.99588 14.6281C6.94593 14.6383 6.91852 14.6659 6.91358 14.7107C6.83128 14.7383 6.77638 14.7934 6.74897 14.876C5.80535 15.8649 4.84519 16.8428 3.86831 17.8099C3.78601 17.865 3.7037 17.865 3.6214 17.8099C3.04082 17.3648 2.547 16.8414 2.13992 16.2397C2.83893 15.4689 3.55218 14.7113 4.27984 13.9669C4.61984 13.6669 4.94905 13.3502 5.26749 13.0165C3.64881 12.989 2.03021 12.9614 0.411523 12.9339C0.190947 12.2523 0.0537449 11.5498 0 10.8264C1.74049 10.689 3.4963 10.6064 5.26749 10.5785C3.78889 9.05248 2.29366 7.53727 0.781893 6.03306C0.902469 5.57461 1.08074 5.13384 1.31687 4.71074C1.53374 4.4976 1.71202 4.24967 1.85185 3.96694C1.91095 3.88838 1.97951 3.87461 2.05761 3.92562C3.33621 5.22329 4.6256 6.50428 5.92593 7.76859C6.25514 8.12669 6.58436 8.48488 6.91358 8.84297C6.91852 8.88785 6.94593 8.91537 6.99588 8.92562C7.05128 6.02755 7.10617 3.13499 7.16049 0.247934C7.25177 0.243231 7.33407 0.215686 7.40741 0.165289C7.7251 0.0575041 8.05432 0.00240496 8.39506 0Z" fill="white" fill-opacity="0.4"/>
<path fill-rule="evenodd" clip-rule="evenodd" d="M10.4553 8.5957C10.6352 8.70504 10.7587 8.87033 10.8257 9.09157C10.9775 9.13703 11.101 9.21967 11.1961 9.3395C10.9177 9.52289 10.7119 9.77083 10.5788 10.0833C10.4342 9.71422 10.1737 9.46628 9.79688 9.3395C10.1978 9.24066 10.4172 8.99273 10.4553 8.5957Z" fill="white" fill-opacity="0.4"/>
<path fill-rule="evenodd" clip-rule="evenodd" d="M8.56234 13.8015C8.32357 14.2966 8.17271 14.82 8.10966 15.3718C7.96777 14.1991 7.43279 13.2624 6.50473 12.5619C6.49773 12.096 6.41543 11.6552 6.25781 11.2396C6.8081 10.8797 7.24703 10.4115 7.57468 9.8346C7.62547 9.82542 7.66662 9.7979 7.69814 9.75195C7.72555 9.91724 7.75304 10.0825 7.78045 10.2478C7.91625 10.5072 8.06711 10.7001 8.23312 10.8263C8.12901 11.571 8.14275 12.3148 8.27427 13.0577C8.36983 13.1813 8.4658 13.3053 8.56234 13.4296C8.51938 13.5082 8.46448 13.5771 8.39773 13.6363C8.45888 13.6926 8.5137 13.7477 8.56234 13.8015Z" fill="#13161F"/>
<path fill-rule="evenodd" clip-rule="evenodd" d="M6.25547 11.2402C6.41308 11.6559 6.49538 12.0967 6.50238 12.5625C6.18328 12.3664 5.85407 12.1874 5.51472 12.0254C5.20394 11.9764 4.90213 11.8938 4.60938 11.7774C5.19793 11.7159 5.74658 11.5368 6.25547 11.2402Z" fill="#13161F"/>
<path fill-rule="evenodd" clip-rule="evenodd" d="M9.13699 10.5781C9.79609 11.2396 10.5917 11.639 11.5238 11.7765C10.8564 11.903 10.2529 12.1647 9.71312 12.5616C9.60926 12.528 9.49954 12.5004 9.38391 12.479C9.26391 12.1917 9.15419 11.9024 9.05469 11.6112C9.16563 11.4451 9.27543 11.2798 9.38391 11.1153C9.35181 10.9121 9.24201 10.7743 9.05469 10.7021C9.10045 10.6704 9.12786 10.6291 9.13699 10.5781Z" fill="#13161F"/>
<path fill-rule="evenodd" clip-rule="evenodd" d="M9.1341 10.5783C9.12496 10.6293 9.09756 10.6706 9.05179 10.7023C9.23912 10.7745 9.34891 10.9123 9.38101 11.1155C9.27253 11.28 9.16274 11.4453 9.05179 11.6114C9.1513 11.9026 9.26101 12.1919 9.38101 12.4792C9.49665 12.5006 9.60636 12.5282 9.71023 12.5618C9.26801 12.923 8.88398 13.3363 8.55797 13.8015C8.50932 13.7477 8.45451 13.6925 8.39336 13.6362C8.46011 13.577 8.515 13.5081 8.55797 13.4296C8.46142 13.3052 8.36546 13.1812 8.2699 13.0577C8.13838 12.3147 8.12463 11.5709 8.22875 10.8263C8.06274 10.7001 7.91188 10.5072 7.77607 10.2478C7.74867 10.0825 7.72118 9.91718 7.69377 9.75189C7.66225 9.79784 7.62109 9.82536 7.57031 9.83453C7.84842 9.32619 8.02677 8.77528 8.10529 8.18164C8.1857 9.10007 8.52858 9.899 9.1341 10.5783Z" fill="#13161F"/>
</svg>
