<svg width="25" height="25" viewBox="0 0 25 25" fill="none" xmlns="http://www.w3.org/2000/svg">
<g clip-path="url(#clip0_188_2467)">
<path d="M12.5008 0C9.10607 0 8.68004 0.0148437 7.34673 0.0755196C6.01603 0.136456 5.10771 0.347129 4.31294 0.656237C3.49082 0.975502 2.79343 1.40258 2.09866 2.09762C1.40336 2.79239 0.976283 3.48978 0.655976 4.31164C0.346087 5.10667 0.135153 6.01525 0.0752588 7.34543C0.0156246 8.67874 0 9.10503 0 12.4998C0 15.8945 0.0151041 16.3192 0.0755196 17.6525C0.136716 18.9832 0.347389 19.8915 0.656237 20.6863C0.975762 21.5084 1.40284 22.2058 2.09788 22.9006C2.79239 23.5959 3.48977 24.024 4.31137 24.3433C5.10667 24.6524 6.01525 24.8631 7.34569 24.924C8.679 24.9847 9.10477 24.9995 12.4992 24.9995C15.8942 24.9995 16.319 24.9847 17.6523 24.924C18.983 24.8631 19.8923 24.6524 20.6876 24.3433C21.5095 24.024 22.2058 23.5959 22.9003 22.9006C23.5956 22.2058 24.0227 21.5084 24.343 20.6866C24.6503 19.8915 24.8612 18.983 24.9237 17.6528C24.9836 16.3195 24.9992 15.8945 24.9992 12.4998C24.9992 9.10503 24.9836 8.679 24.9237 7.34569C24.8612 6.01499 24.6503 5.10667 24.343 4.3119C24.0227 3.48978 23.5956 2.79239 22.9003 2.09762C22.205 1.40232 21.5097 0.975242 20.6868 0.656237C19.89 0.347129 18.9811 0.136456 17.6504 0.0755196C16.3171 0.0148437 15.8927 0 12.4969 0H12.5008ZM11.3795 2.25256C11.7123 2.25204 12.0836 2.25256 12.5008 2.25256C15.8382 2.25256 16.2338 2.26454 17.5517 2.32443C18.7705 2.38016 19.4319 2.5838 19.8725 2.75489C20.4558 2.98145 20.8717 3.25228 21.309 3.68977C21.7464 4.12726 22.0173 4.54392 22.2444 5.12724C22.4154 5.56734 22.6193 6.22879 22.6748 7.44751C22.7347 8.7652 22.7477 9.16102 22.7477 12.4969C22.7477 15.8328 22.7347 16.2286 22.6748 17.5463C22.6191 18.765 22.4154 19.4264 22.2444 19.8665C22.0178 20.4499 21.7464 20.8652 21.309 21.3025C20.8715 21.7399 20.4561 22.0108 19.8725 22.2373C19.4324 22.4092 18.7705 22.6123 17.5517 22.6681C16.2341 22.7279 15.8382 22.741 12.5008 22.741C9.1631 22.741 8.76754 22.7279 7.44985 22.6681C6.23113 22.6118 5.56968 22.4082 5.12881 22.2371C4.54548 22.0105 4.12882 21.7397 3.69133 21.3022C3.25384 20.8647 2.98301 20.4491 2.75594 19.8655C2.58484 19.4254 2.38094 18.764 2.32547 17.5452C2.26558 16.2276 2.2536 15.8317 2.2536 12.4938C2.2536 9.15581 2.26558 8.76207 2.32547 7.44439C2.3812 6.22566 2.58484 5.56422 2.75594 5.1236C2.98249 4.54028 3.25384 4.12362 3.69133 3.68613C4.12882 3.24864 4.54548 2.97781 5.12881 2.75073C5.56942 2.57886 6.23113 2.37574 7.44985 2.31975C8.60296 2.26766 9.04982 2.25204 11.3795 2.24944V2.25256ZM19.1731 4.32804C18.3449 4.32804 17.6731 4.99912 17.6731 5.82749C17.6731 6.6556 18.3449 7.32746 19.1731 7.32746C20.0012 7.32746 20.673 6.6556 20.673 5.82749C20.673 4.99938 20.0012 4.32752 19.1731 4.32752V4.32804ZM12.5008 6.08061C8.95581 6.08061 6.08165 8.95478 6.08165 12.4998C6.08165 16.0447 8.95581 18.9176 12.5008 18.9176C16.0458 18.9176 18.9189 16.0447 18.9189 12.4998C18.9189 8.95478 16.0458 6.08061 12.5008 6.08061ZM12.5008 8.33317C14.8018 8.33317 16.6674 10.1985 16.6674 12.4998C16.6674 14.8008 14.8018 16.6663 12.5008 16.6663C10.1995 16.6663 8.33421 14.8008 8.33421 12.4998C8.33421 10.1985 10.1995 8.33317 12.5008 8.33317Z" fill="white"/>
</g>
<defs>
<clipPath id="clip0_188_2467">
<rect width="25" height="24.9992" fill="white"/>
</clipPath>
</defs>
</svg>
