<svg width="26" height="26" viewBox="0 0 26 26" fill="none" xmlns="http://www.w3.org/2000/svg">
<path d="M23.9799 0.260742C24.9286 0.260742 25.7656 1.0978 25.7656 2.10226V23.475C25.7656 24.4795 24.9286 25.2607 23.9799 25.2607H2.49554C1.54688 25.2607 0.765625 24.4795 0.765625 23.475V2.10226C0.765625 1.0978 1.54688 0.260742 2.49554 0.260742H23.9799ZM8.29911 21.6893V9.80315H4.61607V21.6893H8.29911ZM6.45759 8.12905C7.62946 8.12905 8.57812 7.18039 8.57812 6.00851C8.57812 4.83664 7.62946 3.83217 6.45759 3.83217C5.22991 3.83217 4.28125 4.83664 4.28125 6.00851C4.28125 7.18039 5.22991 8.12905 6.45759 8.12905ZM22.1942 21.6893V15.1603C22.1942 11.9795 21.4688 9.46833 17.7299 9.46833C15.9442 9.46833 14.7165 10.4728 14.2143 11.4215H14.1585V9.80315H10.6429V21.6893H14.3259V15.8299C14.3259 14.2674 14.6049 12.7607 16.558 12.7607C18.4554 12.7607 18.4554 14.5465 18.4554 15.8857V21.6893H22.1942Z" fill="white"/>
</svg>
