<svg width="14" height="13" viewBox="0 0 14 13" fill="none" xmlns="http://www.w3.org/2000/svg">
<path fill-rule="evenodd" clip-rule="evenodd" d="M5.95679 0C6.15297 0 6.34909 0 6.54527 0C6.52751 1.92514 6.54537 3.84112 6.59877 5.74793C6.65226 5.73005 6.68795 5.69421 6.70576 5.6405C6.91975 5.46145 7.11593 5.26446 7.29424 5.04959C7.52605 4.8526 7.74004 4.63772 7.93621 4.40496C8.34638 4.02893 8.73868 3.63499 9.11317 3.22314C9.34498 3.02617 9.55897 2.81129 9.75514 2.57851C10.1723 2.1865 10.5825 1.78361 10.9856 1.36983C11.1079 1.36831 11.2149 1.41308 11.3066 1.50413C11.5365 1.76187 11.7772 2.01256 12.0288 2.2562C12.0813 2.32383 12.0992 2.39545 12.0823 2.47107C10.9941 3.55483 9.91521 4.64712 8.84568 5.74793C8.43455 6.07132 8.06006 6.42947 7.72222 6.82231C7.69317 6.82554 7.67536 6.84343 7.66872 6.87603C9.61214 6.92975 11.5559 6.94764 13.5 6.92975C13.4798 7.44529 13.3907 7.94665 13.2325 8.43388C11.3957 8.42491 9.55891 8.43388 7.72222 8.46074C8.75377 9.50558 9.7881 10.5352 10.8251 11.5496C10.8594 11.6023 10.895 11.6561 10.9321 11.7107C10.5111 12.0206 10.0653 12.2892 9.59465 12.5165C8.91592 11.8528 8.23826 11.1903 7.56173 10.5289C7.49042 10.4215 7.40123 10.3319 7.29424 10.2603C7.08025 10.0096 6.84844 9.77686 6.59877 9.56198C6.54543 10.6987 6.52756 11.8447 6.54527 13C6.49177 13 6.43827 13 6.38477 13C6.09428 12.9991 5.80898 12.9633 5.52881 12.8926C5.427 12.8767 5.33782 12.8408 5.26132 12.7851C5.22339 12.7366 5.16989 12.7187 5.10082 12.7314C5.11864 11.6564 5.10082 10.5821 5.04733 9.50826C5.01485 9.51493 4.99704 9.53281 4.99383 9.56198C4.94033 9.57987 4.90465 9.6157 4.88683 9.66942C4.27348 10.3122 3.64937 10.9478 3.0144 11.5764C2.96091 11.6123 2.90741 11.6123 2.85391 11.5764C2.47654 11.2871 2.15555 10.9469 1.89095 10.5558C2.3453 10.0548 2.80892 9.56236 3.28189 9.07851C3.50289 8.88351 3.71688 8.67761 3.92387 8.46074C2.87172 8.44285 1.81963 8.42491 0.76749 8.40702C0.624115 7.964 0.534934 7.50739 0.5 7.03719C1.63132 6.94785 2.77259 6.89414 3.92387 6.87603C2.96278 5.88411 1.99088 4.89923 1.00823 3.92149C1.0866 3.6235 1.20248 3.337 1.35597 3.06198C1.49693 2.92344 1.61281 2.76228 1.7037 2.57851C1.74212 2.52745 1.78668 2.5185 1.83745 2.55165C2.66854 3.39514 3.50664 4.22778 4.35185 5.04959C4.56584 5.28235 4.77984 5.51517 4.99383 5.74793C4.99704 5.7771 5.01485 5.79499 5.04733 5.80165C5.08333 3.91791 5.11901 2.03774 5.15432 0.161157C5.21365 0.1581 5.26715 0.140196 5.31482 0.107438C5.52132 0.0373777 5.73531 0.00156322 5.95679 0Z" fill="white"/>
<path fill-rule="evenodd" clip-rule="evenodd" d="M7.29517 5.58691C7.41212 5.65798 7.49236 5.76542 7.53591 5.90923C7.63462 5.93877 7.71486 5.99249 7.77665 6.07039C7.59572 6.18959 7.46198 6.35074 7.37542 6.55386C7.28148 6.31395 7.1121 6.15279 6.86719 6.07039C7.12778 6.00614 7.2704 5.84498 7.29517 5.58691Z" fill="white"/>
<path fill-rule="evenodd" clip-rule="evenodd" d="M6.06044 8.9711C5.90524 9.29288 5.80718 9.63308 5.7662 9.99176C5.67397 9.22949 5.32624 8.62069 4.72299 8.16531C4.71845 7.8625 4.66495 7.57596 4.5625 7.30581C4.92019 7.07192 5.20549 6.76754 5.41847 6.39259C5.45148 6.38662 5.47822 6.36873 5.49871 6.33887C5.51653 6.44631 5.5344 6.55374 5.55221 6.66118C5.64048 6.82981 5.73855 6.95519 5.84645 7.03721C5.77878 7.52122 5.78771 8.00469 5.8732 8.48763C5.93531 8.56794 5.99769 8.64852 6.06044 8.72936C6.03252 8.7804 5.99683 8.8252 5.95345 8.86366C5.9932 8.9003 6.02883 8.93613 6.06044 8.9711Z" fill="white"/>
<path fill-rule="evenodd" clip-rule="evenodd" d="M4.56215 7.30566C4.66459 7.57582 4.71809 7.86235 4.72264 8.16517C4.51523 8.03769 4.30124 7.92134 4.08066 7.81599C3.87866 7.78419 3.68248 7.73047 3.49219 7.65484C3.87475 7.61482 4.23137 7.49841 4.56215 7.30566Z" fill="white"/>
<path fill-rule="evenodd" clip-rule="evenodd" d="M6.43631 6.87598C6.86472 7.30594 7.38189 7.56557 7.98775 7.6549C7.55394 7.73715 7.16164 7.90722 6.8108 8.16523C6.74328 8.14337 6.67197 8.12548 6.5968 8.11151C6.5188 7.92479 6.44749 7.73677 6.38281 7.54746C6.45493 7.43949 6.52629 7.33205 6.5968 7.22515C6.57594 7.09306 6.50457 7.00351 6.38281 6.95656C6.41256 6.93598 6.43037 6.90912 6.43631 6.87598Z" fill="white"/>
<path fill-rule="evenodd" clip-rule="evenodd" d="M6.43834 6.87621C6.4324 6.90936 6.41458 6.93621 6.38484 6.95679C6.5066 7.00374 6.57797 7.09329 6.59883 7.22538C6.52832 7.33228 6.45695 7.43972 6.38484 7.5477C6.44952 7.737 6.52083 7.92502 6.59883 8.11175C6.67399 8.12571 6.74531 8.1436 6.81282 8.16547C6.52538 8.40027 6.27576 8.66887 6.06385 8.97125C6.03223 8.93628 5.9966 8.90045 5.95685 8.86381C6.00024 8.82535 6.03592 8.78055 6.06385 8.72952C6.0011 8.64867 5.93872 8.56809 5.87661 8.48778C5.79112 8.00485 5.78218 7.52138 5.84986 7.03737C5.74195 6.95534 5.64389 6.82996 5.55562 6.66133C5.53781 6.5539 5.51994 6.44646 5.50212 6.33902C5.48163 6.36889 5.45488 6.38678 5.42188 6.39274C5.60264 6.06231 5.71857 5.70422 5.76961 5.31836C5.82188 5.91534 6.04475 6.43464 6.43834 6.87621Z" fill="white"/>
</svg>
