<svg width="25" height="25" viewBox="0 0 25 25" fill="none" xmlns="http://www.w3.org/2000/svg">
<path fill-rule="evenodd" clip-rule="evenodd" d="M10.4938 0C10.8711 0 11.2483 0 11.6255 0C11.5914 3.70219 11.6257 7.38677 11.7284 11.0537C11.8313 11.0193 11.8999 10.9504 11.9342 10.8471C12.3457 10.5028 12.7229 10.124 13.0658 9.71074C13.5116 9.33192 13.9231 8.9187 14.3004 8.47107C15.0892 7.74793 15.8436 6.99036 16.5638 6.19835C17.0096 5.81956 17.4211 5.40633 17.7984 4.95868C18.6006 4.2048 19.3894 3.43001 20.1646 2.6343C20.3999 2.63137 20.6057 2.71746 20.7819 2.89256C21.224 3.38821 21.6869 3.8703 22.1708 4.33884C22.2718 4.46889 22.3061 4.60663 22.2737 4.75207C20.181 6.83621 18.1062 8.93678 16.0494 11.0537C15.2587 11.6756 14.5386 12.3644 13.8889 13.1198C13.833 13.126 13.7988 13.1604 13.786 13.2231C17.5234 13.3264 21.2614 13.3608 25 13.3264C24.9612 14.3179 24.7897 15.282 24.4856 16.219C20.9532 16.2018 17.421 16.219 13.8889 16.2707C15.8726 18.28 17.8617 20.26 19.856 22.2107C19.9219 22.3122 19.9904 22.4155 20.0617 22.5207C19.2522 23.1165 18.3949 23.6331 17.4897 24.0702C16.1845 22.7939 14.8813 21.5198 13.5802 20.2479C13.4431 20.0413 13.2716 19.8691 13.0658 19.7314C12.6543 19.2493 12.2085 18.8017 11.7284 18.3884C11.6258 20.5744 11.5915 22.7782 11.6255 25C11.5226 25 11.4198 25 11.3169 25C10.7582 24.9982 10.2096 24.9294 9.67078 24.7934C9.475 24.7628 9.3035 24.6939 9.15638 24.5868C9.08344 24.4934 8.98056 24.459 8.84774 24.4835C8.882 22.4162 8.84774 20.3501 8.74486 18.2851C8.68241 18.2979 8.64815 18.3323 8.64198 18.3884C8.53909 18.4228 8.47047 18.4917 8.43621 18.595C7.25669 19.8311 6.05648 21.0535 4.83539 22.2624C4.73251 22.3313 4.62963 22.3313 4.52675 22.2624C3.80103 21.706 3.18374 21.0518 2.6749 20.2996C3.54866 19.3362 4.44023 18.3892 5.34979 17.4587C5.77479 17.0837 6.18632 16.6877 6.58436 16.2707C4.56101 16.2363 2.53776 16.2018 0.514403 16.1674C0.238683 15.3154 0.0671811 14.4373 0 13.5331C2.17562 13.3613 4.37037 13.258 6.58436 13.2231C4.73611 11.3156 2.86708 9.42159 0.977366 7.54132C1.12809 6.96826 1.35093 6.4173 1.64609 5.88843C1.91718 5.622 2.14002 5.31209 2.31481 4.95868C2.38868 4.86048 2.47438 4.84326 2.57202 4.90702C4.17027 6.52911 5.782 8.13035 7.40741 9.71074C7.81893 10.1584 8.23045 10.6061 8.64198 11.0537C8.64815 11.1098 8.68241 11.1442 8.74486 11.157C8.81409 7.53444 8.88272 3.91874 8.95062 0.309917C9.06471 0.304039 9.16759 0.269607 9.25926 0.206612C9.65638 0.0718802 10.0679 0.0030062 10.4938 0Z" fill="white"/>
<path fill-rule="evenodd" clip-rule="evenodd" d="M13.0652 10.7441C13.2901 10.8808 13.4445 11.0874 13.5282 11.364C13.718 11.4208 13.8723 11.5241 13.9912 11.6739C13.6432 11.9031 13.386 12.213 13.2196 12.6036C13.0389 12.1423 12.7132 11.8324 12.2422 11.6739C12.7433 11.5503 13.0176 11.2404 13.0652 10.7441Z" fill="#1F2B4D"/>
<path fill-rule="evenodd" clip-rule="evenodd" d="M10.701 17.2524C10.4025 17.8712 10.2139 18.5254 10.1351 19.2152C9.95776 17.7493 9.28904 16.5785 8.12895 15.7028C8.12021 15.1205 8.01733 14.5695 7.82031 14.0499C8.50817 13.6001 9.05684 13.0148 9.4664 12.2937C9.52988 12.2823 9.58132 12.2479 9.62072 12.1904C9.65498 12.397 9.68935 12.6037 9.7236 12.8103C9.89336 13.1345 10.0819 13.3757 10.2894 13.5334C10.1593 14.4642 10.1765 15.3939 10.3409 16.3227C10.4603 16.4771 10.5803 16.6321 10.701 16.7875C10.6473 16.8857 10.5786 16.9718 10.4952 17.0458C10.5716 17.1163 10.6402 17.1852 10.701 17.2524Z" fill="#1F2B4D"/>
<path fill-rule="evenodd" clip-rule="evenodd" d="M7.81543 14.0498C8.01244 14.5693 8.11532 15.1204 8.12407 15.7027C7.7252 15.4576 7.31368 15.2338 6.8895 15.0312C6.50102 14.9701 6.12376 14.8667 5.75781 14.7213C6.49351 14.6443 7.17931 14.4205 7.81543 14.0498Z" fill="#1F2B4D"/>
<path fill-rule="evenodd" clip-rule="evenodd" d="M11.4232 13.2236C12.2471 14.0505 13.2416 14.5498 14.4067 14.7216C13.5725 14.8797 12.818 15.2068 12.1434 15.703C12.0135 15.6609 11.8764 15.6265 11.7318 15.5997C11.5818 15.2406 11.4447 14.879 11.3203 14.515C11.459 14.3073 11.5962 14.1007 11.7318 13.8951C11.6917 13.6411 11.5545 13.4689 11.3203 13.3786C11.3775 13.339 11.4118 13.2874 11.4232 13.2236Z" fill="#1F2B4D"/>
<path fill-rule="evenodd" clip-rule="evenodd" d="M11.4235 13.2234C11.4121 13.2871 11.3778 13.3388 11.3206 13.3784C11.5548 13.4687 11.692 13.6409 11.7321 13.8949C11.5965 14.1005 11.4593 14.3071 11.3206 14.5147C11.445 14.8788 11.5821 15.2403 11.7321 15.5994C11.8767 15.6263 12.0138 15.6607 12.1436 15.7027C11.5909 16.1543 11.1108 16.6708 10.7033 17.2523C10.6425 17.1851 10.574 17.1162 10.4976 17.0457C10.581 16.9718 10.6496 16.8856 10.7033 16.7875C10.5826 16.632 10.4627 16.477 10.3432 16.3226C10.1788 15.3939 10.1617 14.4641 10.2918 13.5333C10.0843 13.3756 9.8957 13.1345 9.72595 12.8102C9.69169 12.6036 9.65733 12.397 9.62307 12.1903C9.58367 12.2478 9.53223 12.2822 9.46875 12.2937C9.81638 11.6582 10.0393 10.9696 10.1375 10.2275C10.238 11.3756 10.6666 12.3742 11.4235 13.2234Z" fill="#1F2B4D"/>
</svg>
