<svg width="717" height="426" viewBox="0 0 717 426" fill="none" xmlns="http://www.w3.org/2000/svg">
<path d="M168.886 297H127.415L8 392H69.9559M168.886 297L69.9559 392M168.886 297H209.357M69.9559 392H135.409M135.409 392L209.357 297M135.409 392H198.365M209.357 297H254.325M254.325 297L198.365 392M254.325 297H296.295M198.365 392H264.318M264.318 392L296.295 297M264.318 392H327.773M296.295 297H337.266M337.266 297L327.773 392M337.266 297H380.735M327.773 392H392.726M392.726 392L380.735 297M392.726 392H453.183M380.735 297H424.704M424.704 297L453.183 392M424.704 297H464.675M453.183 392H518.137M518.137 392L464.675 297M518.137 392H580.093M464.675 297H511.642M511.642 297L580.093 392M511.642 297H549.115M580.093 392H645.547M645.547 392H711L586.588 297H549.115M645.547 392L549.115 297" stroke="url(#paint0_linear_188_3038)"/>
<path d="M178 291H137.5V248.5M178 291V41M178 291H219.5M178 41H137.5V82.5M178 41H219.5M219.5 41V291M219.5 41H257.5M219.5 291H257.5M257.5 291V41M257.5 291H299M257.5 41H299M299 41V291M299 41H338M299 291H338M338 291V41M338 291H380.5M338 41H380.5M380.5 41V291M380.5 41H419M380.5 291H419M419 291V41M419 291H459.5M419 41H459.5M459.5 41V291M459.5 41H499.5M459.5 291H499.5M499.5 291V41M499.5 291H541.75M499.5 41H541.75M541.75 41H584V82.5M541.75 41V291M541.75 291H584V248.5M584 82.5H137.5M584 82.5V124.5M137.5 82.5V124.5M137.5 124.5H584M137.5 124.5V165.5M584 124.5V165.5M584 165.5H137.5M584 165.5V206M137.5 165.5V206M584 206H137.5M584 206V248.5M137.5 206V248.5M137.5 248.5H584" stroke="url(#paint1_radial_188_3038)"/>
<path opacity="0.2" d="M101.82 318H616.836" stroke="#C5E0FF"/>
<path opacity="0.4" d="M51 357L666 357" stroke="#C5E0FF"/>
<line x1="107.5" y1="312" x2="107.5" y2="366" stroke="url(#paint2_linear_188_3038)"/>
<circle cx="107" cy="319" r="12" fill="#BB9EFF"/>
<g filter="url(#filter0_f_188_3038)">
<circle cx="106.5" cy="319.5" r="26.5" fill="#E1D5FF"/>
</g>
<line x1="275.5" y1="218" x2="275.5" y2="371" stroke="url(#paint3_linear_188_3038)"/>
<circle cx="275" cy="227" r="12" fill="#BB9EFF"/>
<g filter="url(#filter1_f_188_3038)">
<circle cx="275" cy="227" r="33" fill="#E1D5FF"/>
</g>
<line x1="443.5" y1="170.545" x2="443.5" y2="366" stroke="url(#paint4_linear_188_3038)"/>
<circle cx="443" cy="159" r="12" fill="#BB9EFF"/>
<g filter="url(#filter2_f_188_3038)">
<circle cx="443" cy="159" r="34" fill="#E1D5FF"/>
</g>
<line x1="611.5" y1="110" x2="611.5" y2="366" stroke="url(#paint5_linear_188_3038)"/>
<circle cx="611" cy="106" r="12" fill="#BB9EFF"/>
<g filter="url(#filter3_f_188_3038)">
<circle cx="610.5" cy="106.5" r="26.5" fill="#E1D5FF"/>
</g>
<defs>
<filter id="filter0_f_188_3038" x="0" y="213" width="213" height="213" filterUnits="userSpaceOnUse" color-interpolation-filters="sRGB">
<feFlood flood-opacity="0" result="BackgroundImageFix"/>
<feBlend mode="normal" in="SourceGraphic" in2="BackgroundImageFix" result="shape"/>
<feGaussianBlur stdDeviation="40" result="effect1_foregroundBlur_188_3038"/>
</filter>
<filter id="filter1_f_188_3038" x="162" y="114" width="226" height="226" filterUnits="userSpaceOnUse" color-interpolation-filters="sRGB">
<feFlood flood-opacity="0" result="BackgroundImageFix"/>
<feBlend mode="normal" in="SourceGraphic" in2="BackgroundImageFix" result="shape"/>
<feGaussianBlur stdDeviation="40" result="effect1_foregroundBlur_188_3038"/>
</filter>
<filter id="filter2_f_188_3038" x="329" y="45" width="228" height="228" filterUnits="userSpaceOnUse" color-interpolation-filters="sRGB">
<feFlood flood-opacity="0" result="BackgroundImageFix"/>
<feBlend mode="normal" in="SourceGraphic" in2="BackgroundImageFix" result="shape"/>
<feGaussianBlur stdDeviation="40" result="effect1_foregroundBlur_188_3038"/>
</filter>
<filter id="filter3_f_188_3038" x="504" y="0" width="213" height="213" filterUnits="userSpaceOnUse" color-interpolation-filters="sRGB">
<feFlood flood-opacity="0" result="BackgroundImageFix"/>
<feBlend mode="normal" in="SourceGraphic" in2="BackgroundImageFix" result="shape"/>
<feGaussianBlur stdDeviation="40" result="effect1_foregroundBlur_188_3038"/>
</filter>
<linearGradient id="paint0_linear_188_3038" x1="359.75" y1="391.489" x2="359.75" y2="292.403" gradientUnits="userSpaceOnUse">
<stop stop-color="#C5E0FF" stop-opacity="0.6"/>
<stop offset="0.566528" stop-color="#C5E0FF" stop-opacity="0.166094"/>
<stop offset="1" stop-color="#C5E0FF" stop-opacity="0"/>
</linearGradient>
<radialGradient id="paint1_radial_188_3038" cx="0" cy="0" r="1" gradientUnits="userSpaceOnUse" gradientTransform="translate(361 144) rotate(90) scale(158 282.188)">
<stop stop-color="#C5E0FF"/>
<stop offset="1" stop-color="#C5E0FF" stop-opacity="0"/>
</radialGradient>
<linearGradient id="paint2_linear_188_3038" x1="106.5" y1="312" x2="106.646" y2="357.361" gradientUnits="userSpaceOnUse">
<stop stop-color="white"/>
<stop offset="1" stop-color="white" stop-opacity="0"/>
</linearGradient>
<linearGradient id="paint3_linear_188_3038" x1="274.5" y1="218" x2="275.798" y2="370.993" gradientUnits="userSpaceOnUse">
<stop stop-color="white"/>
<stop offset="0.805" stop-color="white" stop-opacity="0.35"/>
<stop offset="0.95" stop-color="white" stop-opacity="0"/>
</linearGradient>
<linearGradient id="paint4_linear_188_3038" x1="442.5" y1="170.545" x2="444.618" y2="365.983" gradientUnits="userSpaceOnUse">
<stop stop-color="white"/>
<stop offset="0.805" stop-color="white" stop-opacity="0.35"/>
<stop offset="0.95" stop-color="white" stop-opacity="0"/>
</linearGradient>
<linearGradient id="paint5_linear_188_3038" x1="610.5" y1="110" x2="614.134" y2="365.956" gradientUnits="userSpaceOnUse">
<stop stop-color="white"/>
<stop offset="0.805" stop-color="white" stop-opacity="0.35"/>
<stop offset="0.95" stop-color="white" stop-opacity="0"/>
</linearGradient>
</defs>
</svg>
