<svg width="419" height="32" viewBox="0 0 419 32" fill="none" xmlns="http://www.w3.org/2000/svg">
<rect x="7" y="9.9043" width="8.62132" height="8.62132" transform="rotate(45 7 9.9043)" fill="#BCC9FC"/>
<line x1="14.1016" y1="15.5" x2="104.102" y2="15.5" stroke="#8B8B8B" stroke-opacity="0.2"/>
<rect x="105.602" y="0.5" width="221" height="31" rx="15.5" stroke="#8B8B8B" stroke-opacity="0.2"/>
<path d="M123.75 19.46C122.574 19.46 121.636 18.508 121.636 17.332C121.636 16.156 122.574 15.218 123.75 15.218C124.926 15.218 125.878 16.156 125.878 17.332C125.878 18.508 124.926 19.46 123.75 19.46ZM141.04 11.214C142.608 11.214 143.882 12.474 143.882 14.042C143.882 15.82 142.608 16.982 141.04 16.982H136.434V19.754C136.434 20.594 137.12 21 137.12 21H134.67C134.67 21 135.356 20.594 135.356 19.754V12.586C135.356 11.648 134.67 11.2 134.67 11.2H141.04V11.214ZM140.648 15.96C141.614 15.96 142.58 15.386 142.748 14.546C143 13.216 142.062 12.236 140.788 12.236H137.428C136.882 12.236 136.434 12.684 136.434 13.216V15.96H140.648ZM153.611 12.082C151.287 12.082 149.509 13.972 149.509 16.114C149.509 18.214 151.273 20.132 153.611 20.132C155.935 20.132 157.713 18.214 157.713 16.114C157.713 13.972 155.935 12.082 153.611 12.082ZM148.445 16.114C148.445 13.328 150.825 11.06 153.611 11.06C156.397 11.06 158.777 13.328 158.777 16.114C158.777 18.9 156.397 21.154 153.611 21.154C150.825 21.154 148.445 18.9 148.445 16.114ZM178.701 12.474C178.925 11.802 177.651 11.214 177.651 11.2H181.109C181.109 11.2 180.185 11.592 179.807 12.544L177.147 21H174.767L172.009 12.236H171.169L168.411 21H166.031L163.371 12.558C162.993 11.592 162.069 11.214 162.069 11.214H165.527C165.527 11.214 164.253 11.802 164.477 12.474L166.829 19.978H167.599L170.357 11.2H172.807L175.579 19.978H176.349L178.701 12.474ZM192.305 19.978C192.795 19.978 193.873 18.116 193.873 18.116L193.285 21.014H185.221C185.221 21.014 185.907 20.594 185.907 19.726V12.46C185.907 11.704 185.221 11.214 185.221 11.214H192.949L193.537 13.832C193.537 13.832 192.459 12.236 191.955 12.236H187.979C187.433 12.236 186.985 12.67 186.985 13.23V15.512H190.247C190.779 15.512 191.283 14.84 191.283 14.84V17.234C191.283 17.234 190.807 16.534 190.247 16.534H186.985V18.998C186.985 19.544 187.419 19.978 187.965 19.978H192.305ZM206.595 19.124C207.127 19.824 207.967 20.468 208.849 20.468V21C207.687 21 206.343 20.468 205.629 19.544L203.641 16.982H200.239V19.754C200.239 20.594 200.925 21 200.925 21H198.475C198.475 21 199.161 20.594 199.161 19.754V12.586C199.161 11.648 198.475 11.2 198.475 11.2H204.845V11.214C206.413 11.214 207.687 12.474 207.687 14.042C207.687 15.792 206.455 16.94 204.929 16.968L206.595 19.124ZM200.239 13.216V15.96H204.453C205.419 15.96 206.385 15.386 206.553 14.546C206.805 13.216 205.867 12.236 204.593 12.236H201.233C200.687 12.236 200.239 12.684 200.239 13.216ZM220.277 19.978C220.767 19.978 221.845 18.116 221.845 18.116L221.257 21.014H213.193C213.193 21.014 213.879 20.594 213.879 19.726V12.46C213.879 11.704 213.193 11.214 213.193 11.214H220.921L221.509 13.832C221.509 13.832 220.431 12.236 219.927 12.236H215.951C215.405 12.236 214.957 12.67 214.957 13.23V15.512H218.219C218.751 15.512 219.255 14.84 219.255 14.84V17.234C219.255 17.234 218.779 16.534 218.219 16.534H214.957V18.998C214.957 19.544 215.391 19.978 215.937 19.978H220.277ZM231.165 11.214C233.783 11.214 236.345 13.174 236.345 15.778C236.345 18.928 234.147 21.014 231.333 21.014H226.475C226.475 21.014 227.161 20.608 227.161 19.74V12.46C227.161 11.634 226.475 11.214 226.475 11.214H231.165ZM231.333 19.978C233.587 19.978 235.281 18.116 235.281 16.1C235.281 14.014 233.587 12.236 231.333 12.236H229.275C228.701 12.236 228.239 12.698 228.239 13.272V18.984C228.239 19.53 228.687 19.978 229.233 19.978H231.333ZM256.622 15.722C257.602 16.24 258.106 17.192 258.106 18.494C258.12 19.894 256.916 21.014 255.516 21.014H248.992C248.992 21.014 249.678 20.608 249.678 19.754V12.46C249.678 11.508 248.992 11.214 248.992 11.214H255.348C256.608 11.214 257.686 12.194 257.686 13.454C257.686 14.546 257.336 15.232 256.622 15.722ZM254.956 12.236H251.82C251.232 12.236 250.756 12.698 250.756 13.286V15.26H254.844C255.544 15.26 256.216 14.994 256.482 14.336C256.958 13.188 256.09 12.236 254.956 12.236ZM255.068 19.978C256.314 19.978 257.308 18.998 256.986 17.71C256.762 16.786 255.88 16.282 254.914 16.282H250.756V18.998C250.756 19.544 251.204 19.978 251.75 19.978H255.068ZM268.811 11.214H271.527C271.527 11.214 270.547 11.662 270.057 12.46L267.159 17.094V19.754C267.159 20.552 267.859 21.014 267.859 21.014H265.409C265.409 21.014 266.109 20.552 266.109 19.754V17.094L263.211 12.46C262.721 11.662 261.741 11.214 261.741 11.214H264.457C264.457 11.214 263.771 11.662 264.275 12.46L266.627 16.254L268.993 12.46C269.483 11.662 268.811 11.214 268.811 11.214ZM294.942 21H294.144V21.014H292.982V21H291.526C291.526 21 292.66 20.188 292.45 19.684L291.596 17.514H286.388L285.52 19.698C285.338 20.202 286.444 21 286.444 21H285.002V21.014H283.84V21H283.042C283.042 21 283.896 20.636 284.414 19.558L287.326 12.236L287.732 11.214H290.238L290.644 12.236L293.556 19.544C294.074 20.636 294.942 21 294.942 21ZM286.794 16.492H291.19L289.496 12.236H288.488L286.794 16.492ZM300.794 12.46V19.754C300.794 20.594 301.48 21 301.48 21H299.03C299.03 21 299.716 20.594 299.716 19.754V12.46C299.716 11.62 299.03 11.2 299.03 11.2H301.48C301.48 11.2 300.794 11.522 300.794 12.46ZM316.28 19.46C315.104 19.46 314.166 18.508 314.166 17.332C314.166 16.156 315.104 15.218 316.28 15.218C317.456 15.218 318.408 16.156 318.408 17.332C318.408 18.508 317.456 19.46 316.28 19.46Z" fill="#BCC9FC"/>
<line x1="328.102" y1="15.5" x2="418.102" y2="15.5" stroke="#8B8B8B" stroke-opacity="0.2"/>
</svg>
