<svg width="125" height="35" viewBox="0 0 125 35" fill="none" xmlns="http://www.w3.org/2000/svg">
<path d="M24.3546 5.25H4.71402L4.69201 5.36776C4.64015 5.3655 4.58805 5.36431 4.53565 5.36431C2.65201 5.36431 1.125 6.89133 1.125 8.77496C1.125 10.0842 1.86257 11.221 2.94488 11.7927L23.1963 16.891H32.1503L24.3546 5.25Z" fill="white"/>
<path d="M24.8485 19.1893L13.9399 18.109H12.3315H3.07394L10.8697 29.75H30.5103L30.5323 29.6322C30.5841 29.6345 30.6362 29.6357 30.6886 29.6357C32.5723 29.6357 34.0993 28.1087 34.0993 26.225C34.0993 24.684 33.0773 23.3817 31.674 22.9589L24.8485 19.1893Z" fill="white"/>
<path d="M42.1094 24.4746C42.1094 27.6139 44.6338 29.75 48.6147 29.75C52.5631 29.75 55.3141 27.7434 55.3141 24.5069C55.3141 22.0472 53.9548 20.8174 51.2686 20.2024L48.3881 19.5228C47.0288 19.1991 46.3168 18.6166 46.3168 17.7104C46.3168 16.5129 47.223 15.8009 48.7765 15.8009C50.2976 15.8009 51.2038 16.6747 51.2362 18.034H54.9905C54.9581 14.927 52.5308 12.8557 48.9383 12.8557C45.2487 12.8557 42.5948 14.7328 42.5948 17.8722C42.5948 20.429 43.9865 21.7883 46.867 22.4356L49.7474 23.1153C51.1715 23.4389 51.5922 24.0215 51.5922 24.8306C51.5922 25.9957 50.5889 26.7401 48.7441 26.7401C46.9317 26.7401 45.896 25.8662 45.8637 24.4746H42.1094Z" fill="white"/>
<path d="M63.4503 29.75C67.6253 29.75 70.5381 27.6463 71.2178 24.1509H67.5606C67.1075 25.6721 65.6834 26.5135 63.515 26.5135C60.8935 26.5135 59.4047 25.0895 59.1134 22.2738L71.1531 22.2414V21.0439C71.1531 16.0598 68.1108 12.8557 63.3208 12.8557C58.628 12.8557 55.3591 16.3187 55.3591 21.3352C55.3591 26.287 58.6927 29.75 63.4503 29.75ZM63.3532 16.0921C65.7158 16.0921 67.2369 17.5485 67.2369 19.7493H59.2105C59.5989 17.3544 61.0229 16.0921 63.3532 16.0921Z" fill="white"/>
<path d="M76.2712 29.3293V5.25H72.3551V29.3293H76.2712Z" fill="white"/>
<path d="M76.8045 13.3411V16.6423H79.1024V29.3293H83.0185V16.6423H86.8375V13.3411H83.0185V11.3993C83.0185 9.81341 83.5039 8.77774 85.5106 8.77774H86.9022V5.41182C86.2226 5.28236 85.4782 5.25 84.8633 5.25C81.4002 5.25 79.1024 7.06242 79.1024 11.3993V13.3411H76.8045Z" fill="white"/>
<path d="M91.6816 29.75C94.1736 29.75 96.3421 28.6172 97.0217 26.9666L97.313 29.3293H100.776V19.6199C100.776 15.1859 98.1221 12.8557 93.8176 12.8557C89.4808 12.8557 86.6327 15.1212 86.6327 18.5842H89.9986C89.9986 16.9013 91.2932 15.9303 93.6234 15.9303C95.6301 15.9303 96.9246 16.8042 96.9246 18.9726V19.3286L92.1347 19.6846C88.348 19.9759 86.212 21.8207 86.212 24.7659C86.212 27.7758 88.2833 29.75 91.6816 29.75ZM92.9762 26.7725C91.1961 26.7725 90.2252 26.0604 90.2252 24.604C90.2252 23.3094 91.1637 22.5003 93.6234 22.2738L96.957 22.0149V22.8563C96.957 25.3161 95.4035 26.7725 92.9762 26.7725Z" fill="white"/>
<path d="M101.402 24.4746C101.402 27.6139 103.927 29.75 107.908 29.75C111.856 29.75 114.607 27.7434 114.607 24.5069C114.607 22.0472 113.248 20.8174 110.562 20.2024L107.681 19.5228C106.322 19.1991 105.61 18.6166 105.61 17.7104C105.61 16.5129 106.516 15.8009 108.069 15.8009C109.591 15.8009 110.497 16.6747 110.529 18.034H114.283C114.251 14.927 111.824 12.8557 108.231 12.8557C104.542 12.8557 101.888 14.7328 101.888 17.8722C101.888 20.429 103.279 21.7883 106.16 22.4356L109.04 23.1153C110.464 23.4389 110.885 24.0215 110.885 24.8306C110.885 25.9957 109.882 26.7401 108.037 26.7401C106.225 26.7401 105.189 25.8662 105.157 24.4746H101.402Z" fill="white"/>
<path d="M121.028 29.3293V16.6423H124.135V13.3411H121.028V8.357H117.079V13.3411H114.005V16.6423H117.079V29.3293H121.028Z" fill="white"/>
</svg>
