<svg width="35" height="34" viewBox="0 0 35 34" fill="none" xmlns="http://www.w3.org/2000/svg">
<path d="M17.5 11.375L9.46 19.415L10.75 20.7069L16.5625 14.9769V33.0819H18.4375V14.9769L24.25 20.7069L25.5419 19.4169L17.5 11.375ZM2.81875 25.2575C2.10625 23.99 1.5625 22.6625 1.1875 21.275C0.8125 19.8875 0.625 18.4625 0.625 17C0.625 14.665 1.06813 12.4712 1.95438 10.4187C2.84063 8.36625 4.04125 6.58062 5.55625 5.06187C7.07125 3.54312 8.85688 2.34063 10.9131 1.45438C12.9694 0.568125 15.1631 0.125 17.4944 0.125C19.8256 0.125 22.0194 0.568125 24.0756 1.45438C26.1319 2.34063 27.9187 3.54312 29.4362 5.06187C30.9537 6.58062 32.1569 8.36625 33.0456 10.4187C33.9344 12.4712 34.3775 14.665 34.375 17C34.375 18.4625 34.1875 19.8875 33.8125 21.275C33.4375 22.6625 32.8937 23.99 32.1812 25.2575L30.835 23.9075C31.4025 22.8 31.8212 21.6725 32.0912 20.525C32.3612 19.3775 32.4975 18.2025 32.5 17C32.5 12.8125 31.0469 9.26562 28.1406 6.35937C25.2344 3.45312 21.6875 2 17.5 2C13.3125 2 9.76562 3.45312 6.85937 6.35937C3.95312 9.26562 2.5 12.8125 2.5 17C2.5 18.2237 2.64188 19.4181 2.92563 20.5831C3.20938 21.7481 3.63438 22.8569 4.20063 23.9094L2.81875 25.2575Z" fill="white"/>
</svg>
